<?xml version="1.0" encoding="utf-8"?>
<!-- Generator: Adobe Illustrator 16.0.0, SVG Export Plug-In . SVG Version: 6.00 Build 0)  -->
<!DOCTYPE svg PUBLIC "-//W3C//DTD SVG 1.1//EN" "http://www.w3.org/Graphics/SVG/1.1/DTD/svg11.dtd">
<svg version="1.1" id="Layer_1" xmlns="http://www.w3.org/2000/svg" xmlns:xlink="http://www.w3.org/1999/xlink" x="0px" y="0px"
	 width="561.869px" height="561.87px" viewBox="68.134 0.375 561.869 561.87" enable-background="new 68.134 0.375 561.869 561.87"
	 xml:space="preserve">
<g>
	<circle fill="#FFFFFF" cx="349.069" cy="281.31" r="237"/>
	<path fill="#878786" d="M350,59.488c-121.96,0-221.51,99.555-221.51,221.51s99.555,221.51,221.51,221.51
		c121.954,0,221.51-99.555,221.51-221.51S471.954,59.488,350,59.488z M350,491.308c-116.36,0-210.311-93.956-210.311-210.31
		c0-116.353,93.957-210.31,210.311-210.31c116.353,0,210.31,93.957,210.31,210.31C560.31,397.352,466.353,491.308,350,491.308z
		 M350,59.488c-121.96,0-221.51,99.555-221.51,221.51s99.555,221.51,221.51,221.51c121.954,0,221.51-99.555,221.51-221.51
		S471.954,59.488,350,59.488L350,59.488z M350,491.308c-116.36,0-210.311-93.956-210.311-210.31
		c0-116.353,93.957-210.31,210.311-210.31c116.353,0,210.31,93.957,210.31,210.31C560.31,397.352,466.353,491.308,350,491.308z
		 M623.159,336.998c-32.977-24.891-19.289-40.445,6.844-56c-25.512-15.555-39.819-31.109-6.844-56
		c-39.819-9.957-33.602-29.246-15.555-52.891c-29.246-3.734-47.91-11.82-26.754-47.289c-40.445,6.844-41.066-13.066-33.603-41.688
		c-28.62,8.09-48.534,6.844-42.312-33.602c-34.844,21.156-43.555,3.11-47.289-26.754c-23.645,18.043-42.934,24.891-52.891-15.555
		c-24.892,32.978-40.445,19.289-56-6.844c-15.556,25.512-31.109,39.82-56,6.844c-9.957,39.82-29.246,33.603-52.891,15.555
		c-3.734,29.246-11.82,47.91-47.289,26.754c6.844,40.445-13.688,41.066-41.688,33.602c8.09,28.621,6.844,48.535-33.602,41.688
		c21.155,34.844,3.109,43.555-26.754,47.289c18.043,23.645,24.891,42.934-15.556,52.891c32.978,24.891,19.289,40.445-6.844,56
		c25.512,15.555,39.82,31.109,6.844,56c39.82,9.957,33.603,29.246,15.556,52.891c29.245,3.734,47.909,11.82,26.754,47.289
		c40.444-6.844,41.065,13.688,33.602,42.312c28.621-8.09,48.535-6.844,41.688,33.602c34.844-21.156,43.555-3.109,47.289,26.754
		c23.645-18.043,42.934-24.891,52.891,15.556c24.891-32.978,40.444-19.289,56,6.844c15.555-25.513,31.108-39.82,56-6.844
		c9.957-39.82,29.246-33.603,52.891-15.556c3.734-29.246,11.82-47.909,47.289-26.754c-6.844-40.444,13.688-41.065,42.312-33.602
		c-8.089-28.621-6.844-48.535,33.603-42.312c-21.156-34.844-3.109-43.555,26.754-47.289
		C590.183,366.244,583.335,346.955,623.159,336.998L623.159,336.998z M350,514.328c-128.8,0-233.33-104.53-233.33-233.33
		S221.2,47.668,350,47.668s233.329,104.54,233.329,233.33C583.329,409.798,478.8,514.328,350,514.328L350,514.328z M350,59.488
		c-121.96,0-221.51,99.555-221.51,221.51s99.555,221.51,221.51,221.51c121.954,0,221.51-99.555,221.51-221.51
		S471.954,59.488,350,59.488L350,59.488z M350,491.308c-116.36,0-210.311-93.956-210.311-210.31
		c0-116.353,93.957-210.31,210.311-210.31c116.353,0,210.31,93.957,210.31,210.31C560.31,397.352,466.353,491.308,350,491.308
		L350,491.308z"/>
	<path fill="#878786" d="M350,59.488c-121.96,0-221.51,99.555-221.51,221.51s99.555,221.51,221.51,221.51
		c121.954,0,221.51-99.555,221.51-221.51S471.954,59.488,350,59.488z M350,491.308c-116.36,0-210.311-93.956-210.311-210.31
		c0-116.353,93.957-210.31,210.311-210.31c116.353,0,210.31,93.957,210.31,210.31C560.31,397.352,466.353,491.308,350,491.308z"/>
	<path fill="#878786" d="M350,59.488c-121.96,0-221.51,99.555-221.51,221.51s99.555,221.51,221.51,221.51
		c121.954,0,221.51-99.555,221.51-221.51S471.954,59.488,350,59.488z M350,491.308c-116.36,0-210.311-93.956-210.311-210.31
		c0-116.353,93.957-210.31,210.311-210.31c116.353,0,210.31,93.957,210.31,210.31C560.31,397.352,466.353,491.308,350,491.308z"/>
</g>
</svg>
