<?xml version="1.0" encoding="utf-8"?>
<!-- Generator: Adobe Illustrator 16.0.0, SVG Export Plug-In . SVG Version: 6.00 Build 0)  -->
<!DOCTYPE svg PUBLIC "-//W3C//DTD SVG 1.1//EN" "http://www.w3.org/Graphics/SVG/1.1/DTD/svg11.dtd">
<svg version="1.1" id="Layer_1" xmlns="http://www.w3.org/2000/svg" xmlns:xlink="http://www.w3.org/1999/xlink" x="0px" y="0px"
	 width="444.562px" height="533.325px" viewBox="127.72 13.338 444.562 533.325"
	 enable-background="new 127.72 13.338 444.562 533.325" xml:space="preserve">
<path fill="#EF7C00" d="M571.6,424.08l-31.809-138.89c-1.605-7-5.852-12.969-11.965-16.801s-13.328-5.062-20.336-3.461
	l-25.562,5.855c-14.488,3.32-23.578,17.809-20.258,32.301l0.305,1.328l-8.504,3.699c-7.352,3.195-15.055,2.746-22.297-1.297
	c-7.723-4.316-14.582-8.34-20.637-11.895c-27.867-16.344-44.685-26.211-69.121-17.074c-6.719,2.516-13.336,7.316-20.099,13.621
	l-82.883,0.008c-0.652-3.051-1.844-5.996-3.551-8.727c-3.832-6.113-9.801-10.359-16.805-11.965l-25.562-5.855
	c-7-1.605-14.223-0.379-20.336,3.461c-6.113,3.832-10.359,9.801-11.965,16.801L128.404,424.08
	c-3.32,14.487,5.77,28.979,20.266,32.301l25.562,5.855c6.949,1.586,14.305,0.328,20.336-3.461c4.16-2.609,7.449-6.199,9.637-10.441
	l89.973,88.974c6.031,6.03,14.074,9.355,22.652,9.355c8.574,0,16.612-3.324,22.645-9.355c2.742-2.742,4.93-5.902,6.492-9.34
	l7.473,7.473c6.031,6.031,14.074,9.355,22.652,9.355c8.574,0,16.612-3.324,22.651-9.355c2.863-2.863,5.117-6.184,6.691-9.793
	c5.348,3.773,11.73,5.809,18.445,5.809c8.574,0,16.613-3.324,22.652-9.355c6.031-6.031,9.352-14.074,9.355-22.646
	c0-0.449-0.012-0.898-0.027-1.34c7.07-0.863,13.602-4.023,18.694-9.117c7.859-7.859,10.771-18.816,8.738-28.979l15.664-6.914
	c1.82,2.198,3.996,4.117,6.488,5.684c6.02,3.772,13.41,5.047,20.336,3.46l25.562-5.855c7-1.605,12.969-5.852,16.801-11.965
	c3.824-6.125,5.055-13.348,3.453-20.348H571.6z M348.71,297.37c14.508-5.426,23.238-0.922,51.281,15.527
	c6.141,3.605,13.102,7.688,21.016,12.109c12.945,7.234,27.418,8.016,40.762,2.211l4.922-2.141l24.853,108.51l-18.801,8.297
	l-77.582-77.582c-15.871-15.871-40.785-18.117-59.242-5.336c-25.492,17.652-42.578,24.724-58.551,11.898
	c11.965-11.359,23.105-24.547,33.156-36.445c13.824-16.363,28.105-33.277,38.188-37.051L348.71,297.37z M178.89,441.92
	l-25.562-5.855c-3.238-0.742-5.348-4.102-4.602-7.34c0,0,31.785-138.77,31.809-138.89c0.613-2.676,3.262-4.761,5.992-4.761
	c0.449,0,26.914,6.008,26.914,6.008c1.574,0.363,2.93,1.328,3.809,2.73c0.875,1.398,1.16,3.035,0.801,4.613l-31.82,138.89
	c-0.742,3.238-4.102,5.344-7.34,4.602L178.89,441.92z M459.83,474.248c-4.258,4.258-11.603,4.242-15.836,0L382.83,413.08
	c-4.066-4.066-10.664-4.066-14.73,0s-4.066,10.664,0,14.729c0,0,63.402,63.398,63.711,63.712c4.23,4.246,4.316,11.516,0,15.832
	c-4.293,4.293-11.555,4.289-15.836,0l-65.801-65.806c-4.066-4.066-10.664-4.066-14.729,0c-4.066,4.066-4.066,10.664,0,14.73
	c0,0,48.797,48.801,48.801,48.801c4.207,4.207,3.91,11.483-0.215,15.608c-4.277,4.277-11.566,4.277-15.836,0.004l-53.435-53.434
	c-4.066-4.066-10.664-4.066-14.729,0c-4.066,4.066-4.066,10.664,0,14.73l24.897,24.897c4.223,4.223,3.996,11.504-0.164,15.668
	c-4.316,4.324-11.578,4.258-15.879-0.039l-98.492-97.371l25.84-112.84h65.73c-2.402,2.812-4.848,5.703-7.344,8.664
	c-12.406,14.688-25.234,29.884-39.043,41.466c-4.398,3.688-4.98,10.237-1.312,14.647c33.684,40.453,72.613,13.492,93.527-0.992
	c10.332-7.156,23.758-5.945,32.647,2.941l79.388,79.387c4.375,4.363,4.375,11.465,0.004,15.828V474.248z M550.498,433.342
	c-0.875,1.398-2.227,2.367-3.809,2.73l-25.562,5.855c-1.582,0.363-3.215,0.074-4.613-0.801s-2.367-2.227-2.73-3.805l-31.809-138.89
	c-0.363-1.574-0.074-3.215,0.801-4.613s2.227-2.367,3.805-2.73l25.562-5.855c1.574-0.363,3.215-0.074,4.613,0.801
	s2.367,2.227,2.73,3.805l31.81,138.89C551.662,430.303,551.381,431.939,550.498,433.342L550.498,433.342z M350.018,191.592
	c31.371,0,56.892-25.52,56.892-56.891c0-31.371-25.521-56.891-56.892-56.891s-56.891,25.52-56.891,56.891
	C293.127,166.068,318.646,191.592,350.018,191.592z M350.018,98.635c19.888,0,36.062,16.176,36.062,36.062
	c0,19.886-16.184,36.062-36.062,36.062c-19.887,0-36.062-16.176-36.062-36.062C313.956,114.811,330.132,98.635,350.018,98.635z
	 M246.358,163.498c8.746,0,12.199,6.684,13.043,8.738c0.848,2.047,3.137,9.215-3.047,15.398c-3.344,3.344-5.188,7.789-5.188,12.52
	c0,4.73,1.844,9.176,5.188,12.52l15.691,15.691c3.344,3.344,7.789,5.188,12.52,5.188s9.176-1.844,12.52-5.188
	c6.199-6.199,13.359-3.914,15.406-3.062c2.047,0.848,8.727,4.301,8.727,13.062c0,9.766,7.945,17.703,17.703,17.703h22.19
	c9.766,0,17.703-7.945,17.703-17.703c0-8.746,6.684-12.199,8.734-13.043c2.047-0.852,9.215-3.137,15.398,3.047
	c3.344,3.344,7.789,5.188,12.52,5.188s9.176-1.844,12.521-5.188l15.69-15.691c3.344-3.344,5.188-7.789,5.188-12.52
	c0-4.73-1.844-9.176-5.188-12.52c-6.184-6.184-3.898-13.352-3.047-15.398c0.848-2.047,4.301-8.734,13.043-8.734
	c9.766,0,17.703-7.945,17.703-17.703v-22.199c0-9.766-7.945-17.703-17.703-17.703c-8.746,0-12.199-6.684-13.043-8.734
	c-0.848-2.047-3.137-9.215,3.047-15.398c3.344-3.344,5.188-7.79,5.188-12.52s-1.844-9.176-5.188-12.52l-15.69-15.691
	c-3.344-3.344-7.789-5.188-12.521-5.188c-4.73,0-9.176,1.844-12.52,5.188c-6.184,6.184-13.353,3.898-15.398,3.047
	c-2.047-0.852-8.734-4.301-8.734-13.043c0-9.766-7.945-17.703-17.703-17.703h-22.19c-9.766,0-17.703,7.945-17.703,17.703
	c0,8.746-6.684,12.199-8.734,13.043c-2.047,0.852-9.215,3.137-15.398-3.047c-3.344-3.344-7.789-5.188-12.52-5.188
	c-4.731,0-9.176,1.844-12.52,5.188l-15.691,15.691c-3.344,3.344-5.188,7.793-5.188,12.52c0,4.73,1.844,9.176,5.188,12.52
	c6.184,6.184,3.898,13.352,3.047,15.398c-0.852,2.047-4.301,8.738-13.043,8.738c-9.765,0-17.703,7.945-17.703,17.703v22.191
	C228.655,155.552,236.601,163.497,246.358,163.498L246.358,163.498z M249.491,126.6c13.051-1.109,24.051-9.117,29.16-21.465
	c5.109-12.348,3-25.789-5.441-35.801l11.449-11.449c10.012,8.441,23.457,10.559,35.801,5.441
	c12.345-5.117,20.359-16.117,21.465-29.16h16.199c1.109,13.051,9.117,24.051,21.465,29.16c12.345,5.117,25.789,3,35.802-5.441
	l11.448,11.449c-8.441,10.012-10.559,23.457-5.441,35.801c5.118,12.344,16.117,20.359,29.16,21.465v16.191
	c-13.051,1.109-24.051,9.117-29.16,21.465c-5.109,12.348-3,25.789,5.441,35.801l-11.448,11.449
	c-10.013-8.441-23.457-10.559-35.802-5.441c-12.344,5.117-20.358,16.117-21.465,29.16h-16.19
	c-1.109-13.062-9.117-24.066-21.453-29.18c-12.344-5.117-25.789-2.992-35.805,5.461l-11.449-11.449
	c8.441-10.012,10.559-23.457,5.441-35.801c-5.117-12.344-16.117-20.359-29.16-21.465l-0.004-16.191L249.491,126.6z"/>
</svg>
