<?xml version="1.0" encoding="utf-8"?>
<!-- Generator: Adobe Illustrator 16.0.0, SVG Export Plug-In . SVG Version: 6.00 Build 0)  -->
<!DOCTYPE svg PUBLIC "-//W3C//DTD SVG 1.1//EN" "http://www.w3.org/Graphics/SVG/1.1/DTD/svg11.dtd">
<svg version="1.1" id="Layer_1" xmlns="http://www.w3.org/2000/svg" xmlns:xlink="http://www.w3.org/1999/xlink" x="0px" y="0px"
	 width="525px" height="524.997px" viewBox="88.126 18.693 525 524.997" enable-background="new 88.126 18.693 525 524.997"
	 xml:space="preserve">
<g>
	<path fill="#EF7C00" d="M341.88,491.193h17.5v17.5h-17.5V491.193z"/>
	<path fill="#EF7C00" d="M123.13,228.693h76.125l50.297,33.531c2.684,1.777,6.125,1.934,8.961,0.414
		c2.84-1.52,4.609-4.477,4.617-7.695v-26.25h35c9.281,0,18.184-3.688,24.75-10.25c6.562-6.566,10.25-15.469,10.25-24.75v-140
		c0-9.281-3.688-18.184-10.25-24.75c-6.566-6.562-15.469-10.25-24.75-10.25h-175c-9.281,0-18.184,3.688-24.75,10.25
		c-6.562,6.566-10.25,15.469-10.25,24.75v140c0,9.281,3.688,18.184,10.25,24.75C104.946,225.006,113.849,228.693,123.13,228.693
		L123.13,228.693z M105.63,53.693c0-4.641,1.844-9.094,5.125-12.375s7.734-5.125,12.375-5.125h175c4.641,0,9.094,1.844,12.375,5.125
		s5.125,7.734,5.125,12.375v140c0,4.641-1.844,9.094-5.125,12.375s-7.734,5.125-12.375,5.125h-43.75c-4.832,0-8.75,3.918-8.75,8.75
		V238.6l-38.895-25.934v-0.004c-1.438-0.953-3.129-1.465-4.855-1.469h-78.75c-4.641,0-9.094-1.844-12.375-5.125
		c-3.281-3.281-5.125-7.734-5.125-12.375L105.63,53.693z"/>
	<path fill="#EF7C00" d="M149.38,193.693h110.25c5.57,0,10.91-2.211,14.848-6.152c3.941-3.938,6.152-9.277,6.152-14.848v-45.5
		c0-5.57-2.211-10.91-6.152-14.848c-3.938-3.941-9.277-6.152-14.848-6.152h-14v-17.5c0-9.281-3.688-18.184-10.25-24.75
		c-6.566-6.562-15.469-10.25-24.75-10.25c-4.641,0-9.094,1.844-12.375,5.125s-5.125,7.734-5.125,12.375v22.629l-12.371,12.371
		H149.38c-4.832,0-8.75,3.918-8.75,8.75v70c0,2.32,0.922,4.547,2.562,6.188S147.06,193.693,149.38,193.693L149.38,193.693z
		 M208.068,103.631c1.641-1.641,2.562-3.867,2.562-6.188v-26.25c4.641,0,9.094,1.844,12.375,5.125s5.125,7.734,5.125,12.375v17.5
		h-8.75v17.5h40.25c0.93,0,1.82,0.367,2.477,1.023s1.023,1.547,1.023,2.477v45.5c0,0.93-0.367,1.82-1.023,2.477
		s-1.547,1.023-2.477,1.023h-66.5v-57.629L208.068,103.631z M158.13,123.693h17.5v52.5h-17.5V123.693z"/>
	<path fill="#EF7C00" d="M578.13,88.693h-88.375c-2.031-9.875-7.402-18.75-15.215-25.125c-7.809-6.375-17.578-9.863-27.66-9.875
		h-96.25v17.5h96.25c5.41,0.023,10.68,1.715,15.09,4.848s7.746,7.551,9.551,12.652H420.63c-12.449,0.039-23.93,6.707-30.137,17.5
		H350.63v17.5h35v122.5c0,9.281,3.688,18.184,10.25,24.75c6.566,6.562,15.469,10.25,24.75,10.25v26.25
		c0,3.227,1.777,6.195,4.621,7.715c2.848,1.523,6.301,1.355,8.984-0.434l38.895-25.938v67.531l-15.688-15.688
		c-10.027-10.023-24.642-13.938-38.332-10.27c-13.695,3.668-24.396,14.367-28.062,28.062c-3.668,13.69,0.246,28.305,10.271,38.332
		l43.031,43.03h0.004c-3.391,5.148-6.215,10.648-8.419,16.406H359.38v17.5h71.855c-2.844,17.953,0.113,36.344,8.441,52.5h-185.3
		c-6.961,0-13.641-2.766-18.562-7.688s-7.688-11.603-7.688-18.562h70c9.281,0,18.184-3.688,24.75-10.25
		c6.562-6.566,10.25-15.469,10.25-24.75v-69.999c0-9.281-3.688-18.185-10.25-24.75c-6.566-6.562-15.469-10.25-24.75-10.25h-35
		v-26.25c0-3.227-1.777-6.195-4.621-7.715c-2.848-1.523-6.301-1.355-8.984,0.434l-21.395,14.281v-77h-17.5v88.656l-11.375,7.594
		h-76.125c-9.281,0-18.184,3.688-24.75,10.25c-6.562,6.566-10.25,15.469-10.25,24.75v70c0,9.281,3.688,18.184,10.25,24.75
		c6.566,6.562,15.469,10.25,24.75,10.25h87.5c0.016,11.598,4.629,22.719,12.828,30.922c8.203,8.199,19.324,12.812,30.922,12.828
		h192.5c2.151-0.02,4.297-0.199,6.422-0.543c0.746,0.289,1.53,0.473,2.328,0.543h105c2.32,0,4.547-0.922,6.188-2.562
		s2.562-3.867,2.562-6.188V369.041c0.035-23.114-8.29-45.458-23.435-62.915l-19.229-24.938h51.414c9.28,0,18.184-3.688,24.75-10.25
		c6.562-6.566,10.25-15.469,10.25-24.75v-122.5c0-9.281-3.688-18.184-10.25-24.75c-6.566-6.562-15.47-10.25-24.75-10.25
		L578.13,88.693z M123.13,482.443c-4.641,0-9.094-1.844-12.375-5.125s-5.125-7.734-5.125-12.375v-70
		c0-4.641,1.844-9.094,5.125-12.375s7.734-5.125,12.375-5.125h78.75c1.727-0.004,3.418-0.516,4.855-1.469l38.895-25.938v18.656
		c0,2.32,0.922,4.547,2.562,6.188s3.867,2.562,6.188,2.562h43.75c4.641,0,9.094,1.844,12.375,5.125
		c3.281,3.281,5.125,7.734,5.125,12.375v70c0,4.641-1.844,9.094-5.125,12.375c-3.28,3.281-7.734,5.125-12.375,5.125L123.13,482.443z
		 M532.43,317.224c12.543,14.352,19.453,32.762,19.453,51.819v157.15h-91.824c-7.895-11.191-12.227-24.512-12.422-38.207
		s3.75-27.133,11.32-38.547l3.938-5.863c2.336-3.473,1.883-8.109-1.074-11.07l-48.125-48.125c-5.461-5.633-7.539-13.73-5.469-21.297
		s7.98-13.477,15.547-15.547c7.566-2.07,15.664,0.008,21.297,5.469l65.625,65.625l12.371-12.371l-32.435-32.438v-92.629h14
		L532.43,317.224z M595.633,246.192c0,4.641-1.844,9.094-5.125,12.375s-7.734,5.125-12.375,5.125h-96.25
		c-1.727,0.004-3.418,0.516-4.855,1.469l-38.895,25.938v-18.656c0-2.32-0.922-4.547-2.562-6.188s-3.867-2.562-6.188-2.562h-8.75
		c-4.641,0-9.095-1.844-12.375-5.125c-3.281-3.281-5.125-7.734-5.125-12.375v-122.5c0-4.641,1.844-9.094,5.125-12.375
		c3.28-3.281,7.734-5.125,12.375-5.125h157.5c4.641,0,9.094,1.844,12.375,5.125c3.28,3.281,5.125,7.734,5.125,12.375V246.192z"/>
	<path fill="#EF7C00" d="M538.25,133.093c-10.555-2-21.449,0.836-29.688,7.727l-9.18,7.543l-9.172-7.543
		c-8.242-6.895-19.141-9.73-29.694-7.727c-11.095,2.262-20.595,9.379-25.884,19.391c-4.828,8.699-6.441,18.824-4.562,28.594
		c1.879,9.773,7.133,18.574,14.845,24.867l49.078,38.43c3.168,2.477,7.613,2.477,10.78,0l49.078-38.43
		c7.711-6.293,12.961-15.098,14.84-24.871c1.883-9.773,0.266-19.895-4.559-28.602C558.839,142.468,549.343,135.355,538.25,133.093
		L538.25,133.093z M543.062,192.12l-43.68,34.203l-43.681-34.203c-4.414-3.746-7.398-8.902-8.445-14.594
		c-1.047-5.695-0.094-11.574,2.695-16.645c2.809-5.434,7.898-9.328,13.879-10.613c1.129-0.211,2.273-0.32,3.422-0.324
		c4.34,0.027,8.531,1.578,11.849,4.375l14.727,12.117c3.227,2.656,7.883,2.656,11.109,0l14.737-12.117
		c4.207-3.598,9.816-5.094,15.259-4.07c5.977,1.289,11.065,5.18,13.879,10.605c2.797,5.074,3.75,10.961,2.703,16.66
		c-1.047,5.695-4.035,10.855-8.453,14.605V192.12z"/>
	<path fill="#EF7C00" d="M123.13,403.693h122.5v17.5h-122.5V403.693z"/>
	<path fill="#EF7C00" d="M263.13,403.693h35v17.5h-35V403.693z"/>
	<path fill="#EF7C00" d="M123.13,438.693h52.5v17.5h-52.5V438.693z"/>
	<path fill="#EF7C00" d="M193.13,438.693h105v17.5h-105V438.693z"/>
</g>
</svg>
