<?xml version="1.0" encoding="utf-8"?>
<!-- Generator: Adobe Illustrator 25.4.1, SVG Export Plug-In . SVG Version: 6.00 Build 0)  -->
<svg version="1.1" id="Layer_1" xmlns="http://www.w3.org/2000/svg" xmlns:xlink="http://www.w3.org/1999/xlink" x="0px" y="0px"
	 viewBox="0 0 261.5 103.9" style="enable-background:new 0 0 261.5 103.9;" xml:space="preserve">
<style type="text/css">
	.st0{fill:#FFFFFF;}
	.st1{enable-background:new    ;}
</style>
<g>
	<path class="st0" d="M65.1,12.6C43.1,15.3,16,30.8,16,38.7c0,8,25.3,4.6,25.3,4.6s0.9-0.1,1,0.4c0.2,0.8-0.4,1-0.4,1
		S7.7,56,7.7,38.4c0-17.3,52.1-36.7,53.8-37.3H0v72l6.9-11.5C28.9,58.8,56,43.4,56,35.4s-25.3-4.6-25.3-4.6s-0.9,0.1-1-0.4
		c-0.2-0.8,0.4-1,0.4-1s34.1-11.2,34.1,6.4c0,17.3-52.1,36.7-53.8,37.3H72v-72L65.1,12.6z"/>
	<path class="st0" d="M110.1,74.1c-4.1,0-8.2-0.6-12.3-1.9c-4.1-1.3-8.1-3.2-11.9-5.8v-14h4.9l0.7,11.2c2.9,1.8,5.9,3.2,9.1,4.1
		c3.1,0.9,6.3,1.3,9.5,1.3c3.8,0,7.1-0.6,9.9-1.8c2.8-1.2,5-2.8,6.6-4.9c1.6-2.1,2.4-4.5,2.4-7.3c0-2.6-0.6-5-1.9-7
		c-1.3-2-3.3-3.8-6.2-5.3c-2.9-1.5-6.7-2.9-11.6-4.2c-5.2-1.4-9.5-2.9-12.8-4.8c-3.3-1.8-5.8-4-7.3-6.6c-1.6-2.6-2.4-5.6-2.4-9.1
		c0-3.6,1-6.8,2.9-9.5s4.6-4.9,8-6.5s7.4-2,12-2c4.9,0,9.2,0.7,13,2.2s7,3.3,9.7,5.6v12.9h-4.9l-0.7-10.2c-2.1-1.7-4.5-3-7.4-4
		c-2.8-1-6.1-1.4-9.7-1.4c-3.5,0-6.6,0.6-9.1,1.8s-4.5,2.7-5.9,4.7s-2.1,4.2-2.1,6.7c0,2.4,0.5,4.5,1.6,6.4c1.1,1.8,3,3.4,5.6,4.9
		c2.7,1.4,6.4,2.7,11.2,4c7.8,2,13.7,4.7,17.7,8.1c4,3.4,6,7.9,6,13.4c0,3.8-1,7.2-3.1,10c-2.1,2.9-5,5.1-8.7,6.7
		S115,74.1,110.1,74.1z"/>
	<path class="st0" d="M172.1,74.1c-4.1,0-8.2-0.6-12.4-1.9c-4.1-1.3-8.1-3.2-11.9-5.8v-14h4.9l0.7,11.2c2.9,1.8,5.9,3.2,9.1,4.1
		c3.1,0.9,6.3,1.3,9.5,1.3c3.8,0,7.1-0.6,9.9-1.8c2.8-1.2,5-2.8,6.6-4.9s2.4-4.5,2.4-7.3c0-2.6-0.6-5-1.9-7c-1.3-2-3.3-3.8-6.2-5.3
		s-6.7-2.9-11.6-4.2c-5.2-1.4-9.5-2.9-12.8-4.8c-3.3-1.8-5.8-4-7.3-6.6s-2.4-5.6-2.4-9.1c0-3.6,1-6.8,2.9-9.5s4.6-4.9,8-6.5
		s7.5-2,12.1-2c4.9,0,9.2,0.7,13,2.2s7,3.3,9.7,5.6v12.9h-4.9l-0.7-10.2c-2.1-1.7-4.5-3-7.4-4S175.3,5,171.7,5
		c-3.5,0-6.6,0.6-9.1,1.8s-4.5,2.7-5.9,4.7s-2.1,4.2-2.1,6.7c0,2.4,0.5,4.5,1.6,6.4c1.1,1.8,3,3.4,5.6,4.9c2.7,1.4,6.4,2.7,11.2,4
		c7.8,2,13.7,4.7,17.7,8.1c4,3.4,6,7.9,6,13.4c0,3.8-1.1,7.2-3.2,10c-2.1,2.9-5,5.1-8.7,6.7S176.9,74.1,172.1,74.1z"/>
	<path class="st0" d="M208.2,73.1v-4.3l8.1-0.6V6l-8.1-0.6V1H260v15.8h-5l-0.5-10.9h-32.2v27.3h29.1v4.9h-29.1v30.1H256l0.5-11h5V73
		L208.2,73.1L208.2,73.1z"/>
	<g class="st1">
		<path class="st0" d="M0.7,99.4v-1L2,98.2v-9.3l-1.3-0.2v-1H2h3.3c1,0,2,0.2,2.7,0.7s1.4,1.2,1.8,2.1c0.4,0.9,0.6,1.9,0.6,3v0.3
			c0,1.1-0.2,2.1-0.6,3c-0.4,0.9-1,1.6-1.8,2.1c-0.8,0.5-1.7,0.8-2.7,0.8H0.7z M3.6,98.2h1.7c0.7,0,1.4-0.2,1.9-0.6
			c0.5-0.4,0.9-1,1.2-1.6c0.3-0.7,0.4-1.4,0.4-2.3v-0.3c0-0.9-0.1-1.6-0.4-2.3c-0.3-0.7-0.7-1.2-1.2-1.6c-0.5-0.4-1.2-0.6-1.9-0.6
			H3.6V98.2z"/>
		<path class="st0" d="M11.6,99.4v-1l1.3-0.2v-6.3l-1.3-0.2v-1h2.8l0.1,1.1l0,0.2c0.2-0.5,0.6-0.8,0.9-1.1c0.4-0.3,0.8-0.4,1.3-0.4
			c0.2,0,0.3,0,0.5,0c0.2,0,0.3,0.1,0.4,0.1l-0.2,1.5L16.3,92c-0.4,0-0.8,0.1-1.1,0.3c-0.3,0.2-0.5,0.5-0.7,0.9v5l1.3,0.2v1H11.6z"
			/>
		<path class="st0" d="M18.5,99.4v-1l1.3-0.2v-6.3l-1.3-0.2v-1h2.9v7.5l1.3,0.2v1H18.5z M19.7,88.5v-1.7h1.7v1.7H19.7z"/>
		<path class="st0" d="M27.5,99.4l-3.1-7.6l-0.9-0.1v-1h3.7v1L26,91.8l1.9,5l0.2,0.7h0l0.3-0.7l1.8-5l-1.2-0.2v-1h3.7v1l-0.9,0.1
			l-3,7.6H27.5z"/>
		<path class="st0" d="M37.4,99.6c-0.8,0-1.5-0.2-2.1-0.6c-0.6-0.4-1.1-0.9-1.4-1.5c-0.3-0.7-0.5-1.4-0.5-2.3v-0.4
			c0-0.8,0.2-1.6,0.5-2.2c0.3-0.7,0.8-1.2,1.4-1.6s1.2-0.6,1.9-0.6c0.8,0,1.5,0.2,2,0.5c0.5,0.3,0.9,0.8,1.2,1.4
			c0.3,0.6,0.4,1.3,0.4,2.1v1h-5.7l0,0c0,0.6,0.1,1.1,0.3,1.5c0.2,0.4,0.5,0.8,0.8,1s0.8,0.4,1.3,0.4c0.5,0,1-0.1,1.4-0.2
			c0.4-0.2,0.8-0.4,1.1-0.6l0.6,1c-0.3,0.3-0.7,0.6-1.2,0.8C38.8,99.5,38.2,99.6,37.4,99.6z M35.1,94.2h4.1v-0.2
			c0-0.4-0.1-0.8-0.2-1.1c-0.1-0.3-0.4-0.6-0.7-0.8c-0.3-0.2-0.7-0.3-1.1-0.3c-0.4,0-0.7,0.1-1,0.3c-0.3,0.2-0.5,0.5-0.7,0.8
			S35.2,93.7,35.1,94.2L35.1,94.2z"/>
		<path class="st0" d="M42,99.4v-1l1.3-0.2v-6.3L42,91.7v-1h2.8l0.1,1.3c0.3-0.5,0.7-0.8,1.1-1.1c0.4-0.3,0.9-0.4,1.5-0.4
			c0.9,0,1.7,0.3,2.2,0.8c0.5,0.6,0.8,1.4,0.8,2.6v4.3l1.3,0.2v1h-4.2v-1l1.3-0.2v-4.3c0-0.8-0.2-1.3-0.5-1.6
			c-0.3-0.3-0.8-0.5-1.4-0.5c-0.5,0-0.9,0.1-1.2,0.3c-0.4,0.2-0.6,0.5-0.8,0.9v5.2l1.3,0.2v1H42z"/>
		<path class="st0" d="M61.7,99.6c-0.6,0-1.1-0.1-1.5-0.3c-0.4-0.2-0.8-0.5-1.1-1L59,99.4h-1.4V88l-1.3-0.2v-1h2.9v4.9
			c0.3-0.4,0.6-0.7,1-0.9c0.4-0.2,0.9-0.3,1.4-0.3c0.7,0,1.3,0.2,1.9,0.6c0.5,0.4,0.9,0.9,1.2,1.7s0.4,1.5,0.4,2.5v0.2
			c0,0.8-0.1,1.6-0.4,2.2c-0.3,0.6-0.7,1.1-1.2,1.5C63.1,99.4,62.5,99.6,61.7,99.6z M61.3,98.3c0.8,0,1.3-0.3,1.7-0.8
			c0.4-0.5,0.5-1.2,0.5-2.1v-0.2c0-0.7-0.1-1.3-0.2-1.8s-0.4-0.9-0.7-1.2c-0.3-0.3-0.7-0.4-1.3-0.4c-0.5,0-0.9,0.1-1.2,0.4
			s-0.6,0.6-0.8,1V97c0.2,0.4,0.5,0.7,0.8,1S60.8,98.3,61.3,98.3z"/>
		<path class="st0" d="M68.1,103c-0.1,0-0.3,0-0.5,0c-0.2,0-0.4-0.1-0.5-0.1l0.2-1.3c0.1,0,0.2,0,0.4,0c0.2,0,0.3,0,0.3,0
			c0.3,0,0.6-0.1,0.8-0.4c0.2-0.3,0.4-0.6,0.6-1.1l0.4-0.9l-3.1-7.4l-0.9-0.1v-1h3.7v1l-1.1,0.2l1.7,4.4l0.4,1.1h0l2-5.5l-1.1-0.2
			v-1h3.6v1l-0.9,0.1l-3.5,9c-0.2,0.4-0.4,0.8-0.6,1.1s-0.5,0.6-0.8,0.8S68.6,103,68.1,103z"/>
		<path class="st0" d="M85.4,99.6c-1.2,0-2.2-0.3-3-0.8c-0.8-0.5-1.4-1.2-1.8-2.1s-0.6-1.9-0.6-3.1v-0.2c0-1.2,0.2-2.2,0.6-3.1
			s1-1.6,1.8-2.1c0.8-0.5,1.7-0.8,2.8-0.8c0.8,0,1.5,0.1,2.1,0.4c0.6,0.2,1.2,0.5,1.6,0.9v2.6h-1.3l-0.2-1.9
			c-0.2-0.1-0.4-0.2-0.6-0.3c-0.2-0.1-0.5-0.2-0.7-0.2c-0.3,0-0.6-0.1-0.9-0.1c-0.8,0-1.4,0.2-2,0.6c-0.5,0.4-0.9,0.9-1.2,1.6
			c-0.3,0.7-0.4,1.5-0.4,2.4v0.2c0,1,0.1,1.8,0.4,2.5s0.7,1.2,1.3,1.6c0.6,0.4,1.3,0.6,2.1,0.6c0.4,0,0.7,0,1.1-0.1
			c0.4-0.1,0.7-0.2,0.9-0.4l0.2-1.6h1.3v2.6c-0.4,0.3-1,0.5-1.6,0.6S86.1,99.6,85.4,99.6z"/>
		<path class="st0" d="M90.5,99.4v-1l1.3-0.2v-6.3l-1.3-0.2v-1h2.8l0.1,1.1l0,0.2c0.2-0.5,0.6-0.8,0.9-1.1c0.4-0.3,0.8-0.4,1.3-0.4
			c0.2,0,0.3,0,0.5,0c0.2,0,0.3,0.1,0.4,0.1l-0.2,1.5L95.1,92c-0.4,0-0.8,0.1-1.1,0.3c-0.3,0.2-0.5,0.5-0.7,0.9v5l1.3,0.2v1H90.5z"
			/>
		<path class="st0" d="M101.3,99.6c-0.8,0-1.5-0.2-2.1-0.6c-0.6-0.4-1.1-0.9-1.4-1.5c-0.3-0.7-0.5-1.4-0.5-2.3v-0.4
			c0-0.8,0.2-1.6,0.5-2.2c0.3-0.7,0.8-1.2,1.4-1.6s1.2-0.6,1.9-0.6c0.8,0,1.5,0.2,2,0.5c0.5,0.3,0.9,0.8,1.2,1.4
			c0.3,0.6,0.4,1.3,0.4,2.1v1h-5.7l0,0c0,0.6,0.1,1.1,0.3,1.5c0.2,0.4,0.5,0.8,0.8,1s0.8,0.4,1.3,0.4c0.5,0,1-0.1,1.4-0.2
			c0.4-0.2,0.8-0.4,1.1-0.6l0.6,1c-0.3,0.3-0.7,0.6-1.2,0.8C102.6,99.5,102,99.6,101.3,99.6z M99,94.2h4.1v-0.2
			c0-0.4-0.1-0.8-0.2-1.1c-0.1-0.3-0.4-0.6-0.7-0.8c-0.3-0.2-0.7-0.3-1.1-0.3c-0.4,0-0.7,0.1-1,0.3c-0.3,0.2-0.5,0.5-0.7,0.8
			S99,93.7,99,94.2L99,94.2z"/>
		<path class="st0" d="M108.8,99.6c-0.9,0-1.6-0.2-2.1-0.7c-0.5-0.4-0.7-1.1-0.7-1.9c0-0.6,0.2-1,0.5-1.5c0.3-0.4,0.7-0.7,1.3-1
			c0.6-0.2,1.3-0.3,2.1-0.3h1.6v-0.9c0-0.5-0.2-0.9-0.5-1.2c-0.3-0.3-0.8-0.4-1.4-0.4c-0.4,0-0.7,0-1,0.1c-0.3,0.1-0.5,0.2-0.7,0.4
			l-0.2,1.2h-1.2v-2c0.4-0.3,0.9-0.6,1.4-0.7c0.5-0.2,1.1-0.2,1.7-0.2c1.1,0,1.9,0.3,2.5,0.8c0.6,0.5,0.9,1.2,0.9,2.2v4.2
			c0,0.1,0,0.2,0,0.3c0,0.1,0,0.2,0,0.3l0.9,0.1v1h-2.3c0-0.2-0.1-0.5-0.1-0.6c0-0.2,0-0.4-0.1-0.6c-0.3,0.4-0.7,0.7-1.2,1
			C109.9,99.5,109.4,99.6,108.8,99.6z M109.1,98.3c0.5,0,1-0.1,1.5-0.4c0.4-0.3,0.8-0.6,0.9-0.9v-1.6h-1.6c-0.7,0-1.3,0.2-1.7,0.5
			c-0.4,0.4-0.6,0.7-0.6,1.2c0,0.4,0.1,0.7,0.4,0.9S108.6,98.3,109.1,98.3z"/>
		<path class="st0" d="M118.3,99.6c-0.6,0-1.2-0.2-1.5-0.6s-0.6-1-0.6-1.8v-5.3h-1.4v-1.2h1.4v-2.1h1.6v2.1h1.9v1.2h-1.9v5.3
			c0,0.4,0.1,0.7,0.3,0.9c0.2,0.2,0.4,0.3,0.7,0.3c0.2,0,0.4,0,0.6-0.1s0.4-0.1,0.5-0.1l0.2,1c-0.2,0.1-0.5,0.1-0.9,0.2
			C118.9,99.5,118.6,99.6,118.3,99.6z"/>
		<path class="st0" d="M121.1,99.4v-1l1.3-0.2v-6.3l-1.3-0.2v-1h2.9v7.5l1.3,0.2v1H121.1z M122.3,88.5v-1.7h1.7v1.7H122.3z"/>
		<path class="st0" d="M130.1,99.4l-3.1-7.6l-0.9-0.1v-1h3.7v1l-1.1,0.2l1.9,5l0.2,0.7h0l0.3-0.7l1.8-5l-1.2-0.2v-1h3.7v1l-0.9,0.1
			l-3,7.6H130.1z"/>
		<path class="st0" d="M136.2,99.4v-1l1.3-0.2v-6.3l-1.3-0.2v-1h2.9v7.5l1.3,0.2v1H136.2z M137.4,88.5v-1.7h1.7v1.7H137.4z"/>
		<path class="st0" d="M144.6,99.6c-0.7,0-1.2-0.2-1.5-0.6c-0.4-0.4-0.6-1-0.6-1.8v-5.3h-1.4v-1.2h1.4v-2.1h1.6v2.1h1.9v1.2h-1.9
			v5.3c0,0.4,0.1,0.7,0.3,0.9c0.2,0.2,0.4,0.3,0.7,0.3c0.2,0,0.4,0,0.6-0.1s0.4-0.1,0.5-0.1l0.2,1c-0.2,0.1-0.5,0.1-0.9,0.2
			C145.2,99.5,144.9,99.6,144.6,99.6z"/>
		<path class="st0" d="M149.3,103c-0.1,0-0.3,0-0.5,0c-0.2,0-0.4-0.1-0.5-0.1l0.2-1.3c0.1,0,0.2,0,0.4,0c0.2,0,0.3,0,0.3,0
			c0.3,0,0.6-0.1,0.8-0.4c0.2-0.3,0.4-0.6,0.6-1.1l0.4-0.9l-3.1-7.4l-0.9-0.1v-1h3.7v1l-1.1,0.2l1.7,4.4l0.4,1.1h0l2-5.5l-1.1-0.2
			v-1h3.6v1l-0.9,0.1l-3.5,9c-0.2,0.4-0.4,0.8-0.6,1.1s-0.5,0.6-0.8,0.8S149.8,103,149.3,103z"/>
		<path class="st0" d="M165.1,99.6c-0.8,0-1.5-0.1-2-0.4s-1-0.7-1.3-1.2s-0.5-1.1-0.5-1.7c0-0.6,0.2-1.2,0.6-1.7s0.9-1,1.6-1.5
			c0,0,0,0,0,0c0,0,0,0,0,0c-0.4-0.5-0.7-1-0.9-1.4c-0.2-0.4-0.3-0.9-0.3-1.3c0-0.6,0.1-1.1,0.4-1.6s0.6-0.7,1-1
			c0.4-0.2,1-0.3,1.6-0.3c0.6,0,1.1,0.1,1.5,0.3s0.8,0.5,1,0.9c0.2,0.4,0.4,0.8,0.4,1.3c0,0.5-0.1,1-0.4,1.4
			c-0.3,0.4-0.7,0.8-1.3,1.2l-0.9,0.6l2.8,3.3c0.2-0.4,0.4-0.7,0.5-1.2c0.1-0.4,0.2-0.9,0.2-1.4h1.4c0,0.7-0.1,1.4-0.3,2
			s-0.5,1.2-0.9,1.6l1.5,1.8l0,0h-1.9l-0.7-0.8c-0.4,0.3-0.9,0.6-1.4,0.7C166.2,99.5,165.7,99.6,165.1,99.6z M165.1,98.3
			c0.4,0,0.8-0.1,1.2-0.2s0.7-0.3,1.1-0.6l-2.9-3.5l-0.3,0.2c-0.5,0.4-0.8,0.7-1,1.1c-0.2,0.3-0.2,0.6-0.2,0.9
			c0,0.6,0.2,1.1,0.6,1.5S164.4,98.3,165.1,98.3z M164.8,92.2l1.1-0.8c0.3-0.2,0.5-0.4,0.6-0.7c0.1-0.2,0.2-0.5,0.2-0.8
			c0-0.3-0.1-0.6-0.4-0.9s-0.6-0.4-1-0.4c-0.4,0-0.8,0.2-1,0.5s-0.4,0.7-0.4,1.1c0,0.3,0.1,0.6,0.2,0.9S164.5,91.8,164.8,92.2z"/>
		<path class="st0" d="M175.9,99.4v-1l1.3-0.2v-9.3l-1.3-0.2v-1h4.2v1l-1.3,0.2v9.3l1.3,0.2v1H175.9z"/>
		<path class="st0" d="M181.4,99.4v-1l1.3-0.2v-6.3l-1.3-0.2v-1h2.8l0.1,1.3c0.3-0.5,0.7-0.8,1.1-1.1c0.4-0.3,0.9-0.4,1.5-0.4
			c0.9,0,1.7,0.3,2.2,0.8c0.5,0.6,0.8,1.4,0.8,2.6v4.3l1.3,0.2v1h-4.2v-1l1.3-0.2v-4.3c0-0.8-0.2-1.3-0.5-1.6
			c-0.3-0.3-0.8-0.5-1.4-0.5c-0.5,0-0.9,0.1-1.2,0.3c-0.4,0.2-0.6,0.5-0.8,0.9v5.2l1.3,0.2v1H181.4z"/>
		<path class="st0" d="M192.3,99.4v-1l1.3-0.2v-6.3l-1.3-0.2v-1h2.8l0.1,1.3c0.3-0.5,0.7-0.8,1.1-1.1c0.4-0.3,0.9-0.4,1.5-0.4
			c0.9,0,1.7,0.3,2.2,0.8s0.8,1.4,0.8,2.6v4.3l1.3,0.2v1h-4.2v-1l1.3-0.2v-4.3c0-0.8-0.2-1.3-0.5-1.6c-0.3-0.3-0.8-0.5-1.4-0.5
			c-0.5,0-0.9,0.1-1.2,0.3c-0.4,0.2-0.6,0.5-0.8,0.9v5.2l1.3,0.2v1H192.3z"/>
		<path class="st0" d="M207.1,99.6c-0.8,0-1.5-0.2-2.1-0.6s-1-0.9-1.4-1.6c-0.3-0.7-0.5-1.4-0.5-2.3V95c0-0.9,0.2-1.6,0.5-2.3
			s0.8-1.2,1.4-1.6s1.3-0.6,2.1-0.6c0.8,0,1.5,0.2,2.1,0.6c0.6,0.4,1,0.9,1.4,1.6c0.3,0.7,0.5,1.4,0.5,2.3v0.2
			c0,0.9-0.2,1.6-0.5,2.3c-0.3,0.7-0.8,1.2-1.4,1.6C208.6,99.4,207.9,99.6,207.1,99.6z M207.1,98.3c0.5,0,0.9-0.1,1.3-0.4
			c0.3-0.3,0.6-0.7,0.8-1.1s0.3-1,0.3-1.7V95c0-0.6-0.1-1.2-0.3-1.7c-0.2-0.5-0.4-0.9-0.8-1.1c-0.3-0.3-0.8-0.4-1.3-0.4
			c-0.5,0-0.9,0.1-1.3,0.4c-0.3,0.3-0.6,0.7-0.8,1.1c-0.2,0.5-0.3,1-0.3,1.7v0.2c0,0.6,0.1,1.2,0.3,1.7c0.2,0.5,0.4,0.9,0.8,1.1
			C206.1,98.2,206.6,98.3,207.1,98.3z"/>
		<path class="st0" d="M215.6,99.4l-3.1-7.6l-0.9-0.1v-1h3.7v1l-1.1,0.2l1.9,5l0.2,0.7h0l0.3-0.7l1.8-5l-1.2-0.2v-1h3.7v1l-0.9,0.1
			l-3,7.6H215.6z"/>
		<path class="st0" d="M224.5,99.6c-0.9,0-1.6-0.2-2.1-0.7c-0.5-0.4-0.7-1.1-0.7-1.9c0-0.6,0.2-1,0.5-1.5c0.3-0.4,0.7-0.7,1.3-1
			c0.6-0.2,1.3-0.3,2.1-0.3h1.6v-0.9c0-0.5-0.2-0.9-0.5-1.2c-0.3-0.3-0.8-0.4-1.4-0.4c-0.4,0-0.7,0-1,0.1c-0.3,0.1-0.5,0.2-0.7,0.4
			l-0.2,1.2h-1.2v-2c0.4-0.3,0.9-0.6,1.4-0.7s1.1-0.2,1.7-0.2c1.1,0,1.9,0.3,2.5,0.8c0.6,0.5,0.9,1.2,0.9,2.2v4.2c0,0.1,0,0.2,0,0.3
			c0,0.1,0,0.2,0,0.3l0.9,0.1v1h-2.3c0-0.2-0.1-0.5-0.1-0.6c0-0.2,0-0.4-0.1-0.6c-0.3,0.4-0.7,0.7-1.2,1S225,99.6,224.5,99.6z
			 M224.7,98.3c0.5,0,1-0.1,1.5-0.4c0.4-0.3,0.8-0.6,0.9-0.9v-1.6h-1.6c-0.7,0-1.3,0.2-1.7,0.5c-0.4,0.4-0.6,0.7-0.6,1.2
			c0,0.4,0.1,0.7,0.4,0.9S224.2,98.3,224.7,98.3z"/>
		<path class="st0" d="M233.9,99.6c-0.6,0-1.2-0.2-1.5-0.6s-0.6-1-0.6-1.8v-5.3h-1.4v-1.2h1.4v-2.1h1.6v2.1h1.9v1.2h-1.9v5.3
			c0,0.4,0.1,0.7,0.3,0.9s0.4,0.3,0.7,0.3c0.2,0,0.4,0,0.6-0.1c0.2,0,0.4-0.1,0.5-0.1l0.2,1c-0.2,0.1-0.5,0.1-0.9,0.2
			C234.5,99.5,234.2,99.6,233.9,99.6z"/>
		<path class="st0" d="M236.7,99.4v-1l1.3-0.2v-6.3l-1.3-0.2v-1h2.9v7.5l1.3,0.2v1H236.7z M237.9,88.5v-1.7h1.7v1.7H237.9z"/>
		<path class="st0" d="M246,99.6c-0.8,0-1.5-0.2-2.1-0.6c-0.6-0.4-1-0.9-1.4-1.6c-0.3-0.7-0.5-1.4-0.5-2.3V95c0-0.9,0.2-1.6,0.5-2.3
			c0.3-0.7,0.8-1.2,1.4-1.6c0.6-0.4,1.3-0.6,2.1-0.6c0.8,0,1.5,0.2,2.1,0.6s1,0.9,1.4,1.6c0.3,0.7,0.5,1.4,0.5,2.3v0.2
			c0,0.9-0.2,1.6-0.5,2.3s-0.8,1.2-1.4,1.6C247.5,99.4,246.8,99.6,246,99.6z M246,98.3c0.5,0,0.9-0.1,1.3-0.4
			c0.3-0.3,0.6-0.7,0.8-1.1s0.3-1,0.3-1.7V95c0-0.6-0.1-1.2-0.3-1.7c-0.2-0.5-0.4-0.9-0.8-1.1c-0.3-0.3-0.8-0.4-1.3-0.4
			c-0.5,0-0.9,0.1-1.3,0.4c-0.3,0.3-0.6,0.7-0.8,1.1c-0.2,0.5-0.3,1-0.3,1.7v0.2c0,0.6,0.1,1.2,0.3,1.7s0.4,0.9,0.8,1.1
			C245.1,98.2,245.5,98.3,246,98.3z"/>
		<path class="st0" d="M251.2,99.4v-1l1.3-0.2v-6.3l-1.3-0.2v-1h2.8l0.1,1.3c0.3-0.5,0.7-0.8,1.1-1.1c0.4-0.3,0.9-0.4,1.5-0.4
			c0.9,0,1.7,0.3,2.2,0.8c0.5,0.6,0.8,1.4,0.8,2.6v4.3l1.3,0.2v1h-4.2v-1l1.3-0.2v-4.3c0-0.8-0.2-1.3-0.5-1.6
			c-0.3-0.3-0.8-0.5-1.4-0.5c-0.5,0-0.9,0.1-1.2,0.3c-0.4,0.2-0.6,0.5-0.8,0.9v5.2l1.3,0.2v1H251.2z"/>
	</g>
</g>
</svg>
