<?xml version="1.0" encoding="utf-8"?>
<!-- Generator: Adobe Illustrator 26.0.1, SVG Export Plug-In . SVG Version: 6.00 Build 0)  -->
<!DOCTYPE svg PUBLIC "-//W3C//DTD SVG 1.1//EN" "http://www.w3.org/Graphics/SVG/1.1/DTD/svg11.dtd" [
	<!ENTITY ns_extend "http://ns.adobe.com/Extensibility/1.0/">
	<!ENTITY ns_ai "http://ns.adobe.com/AdobeIllustrator/10.0/">
	<!ENTITY ns_graphs "http://ns.adobe.com/Graphs/1.0/">
	<!ENTITY ns_vars "http://ns.adobe.com/Variables/1.0/">
	<!ENTITY ns_imrep "http://ns.adobe.com/ImageReplacement/1.0/">
	<!ENTITY ns_sfw "http://ns.adobe.com/SaveForWeb/1.0/">
	<!ENTITY ns_custom "http://ns.adobe.com/GenericCustomNamespace/1.0/">
	<!ENTITY ns_adobe_xpath "http://ns.adobe.com/XPath/1.0/">
]>
<svg version="1.1" id="Layer_1" xmlns:x="&ns_extend;" xmlns:i="&ns_ai;" xmlns:graph="&ns_graphs;"
	 xmlns="http://www.w3.org/2000/svg" xmlns:xlink="http://www.w3.org/1999/xlink" x="0px" y="0px" viewBox="0 0 850.4 341.5"
	 style="enable-background:new 0 0 850.4 341.5;" xml:space="preserve">
<style type="text/css">
	.st0{fill:#FFFFFF;}
	.st1{fill:#FF4E24;}
</style>
<metadata><?xpacket begin="﻿" id="W5M0MpCehiHzreSzNTczkc9d"?>
<x:xmpmeta xmlns:x="adobe:ns:meta/" x:xmptk="Adobe XMP Core 7.1-c000 79.a8731b9, 2021/09/09-00:37:38        ">
   <rdf:RDF xmlns:rdf="http://www.w3.org/1999/02/22-rdf-syntax-ns#">
      <rdf:Description rdf:about=""
            xmlns:xmp="http://ns.adobe.com/xap/1.0/"
            xmlns:xmpGImg="http://ns.adobe.com/xap/1.0/g/img/"
            xmlns:xmpTPg="http://ns.adobe.com/xap/1.0/t/pg/"
            xmlns:stDim="http://ns.adobe.com/xap/1.0/sType/Dimensions#"
            xmlns:xmpG="http://ns.adobe.com/xap/1.0/g/"
            xmlns:dc="http://purl.org/dc/elements/1.1/"
            xmlns:illustrator="http://ns.adobe.com/illustrator/1.0/"
            xmlns:xmpMM="http://ns.adobe.com/xap/1.0/mm/"
            xmlns:stRef="http://ns.adobe.com/xap/1.0/sType/ResourceRef#"
            xmlns:stEvt="http://ns.adobe.com/xap/1.0/sType/ResourceEvent#"
            xmlns:pdf="http://ns.adobe.com/pdf/1.3/">
         <xmp:CreatorTool>Adobe Illustrator 26.0 (Windows)</xmp:CreatorTool>
         <xmp:CreateDate>2022-07-02T06:28:27+05:30</xmp:CreateDate>
         <xmp:MetadataDate>2022-07-02T06:28:27+05:30</xmp:MetadataDate>
         <xmp:ModifyDate>2022-07-02T06:28:27+05:30</xmp:ModifyDate>
         <xmp:Thumbnails>
            <rdf:Alt>
               <rdf:li rdf:parseType="Resource">
                  <xmpGImg:width>256</xmpGImg:width>
                  <xmpGImg:height>104</xmpGImg:height>
                  <xmpGImg:format>JPEG</xmpGImg:format>
                  <xmpGImg:image>/9j/4AAQSkZJRgABAgEASABIAAD/7QAsUGhvdG9zaG9wIDMuMAA4QklNA+0AAAAAABAASAAAAAEA&#xA;AQBIAAAAAQAB/+4ADkFkb2JlAGTAAAAAAf/bAIQABgQEBAUEBgUFBgkGBQYJCwgGBggLDAoKCwoK&#xA;DBAMDAwMDAwQDA4PEA8ODBMTFBQTExwbGxscHx8fHx8fHx8fHwEHBwcNDA0YEBAYGhURFRofHx8f&#xA;Hx8fHx8fHx8fHx8fHx8fHx8fHx8fHx8fHx8fHx8fHx8fHx8fHx8fHx8fHx8f/8AAEQgAaAEAAwER&#xA;AAIRAQMRAf/EAaIAAAAHAQEBAQEAAAAAAAAAAAQFAwIGAQAHCAkKCwEAAgIDAQEBAQEAAAAAAAAA&#xA;AQACAwQFBgcICQoLEAACAQMDAgQCBgcDBAIGAnMBAgMRBAAFIRIxQVEGE2EicYEUMpGhBxWxQiPB&#xA;UtHhMxZi8CRygvElQzRTkqKyY3PCNUQnk6OzNhdUZHTD0uIIJoMJChgZhJRFRqS0VtNVKBry4/PE&#xA;1OT0ZXWFlaW1xdXl9WZ2hpamtsbW5vY3R1dnd4eXp7fH1+f3OEhYaHiImKi4yNjo+Ck5SVlpeYmZ&#xA;qbnJ2en5KjpKWmp6ipqqusra6voRAAICAQIDBQUEBQYECAMDbQEAAhEDBCESMUEFURNhIgZxgZEy&#xA;obHwFMHR4SNCFVJicvEzJDRDghaSUyWiY7LCB3PSNeJEgxdUkwgJChgZJjZFGidkdFU38qOzwygp&#xA;0+PzhJSktMTU5PRldYWVpbXF1eX1RlZmdoaWprbG1ub2R1dnd4eXp7fH1+f3OEhYaHiImKi4yNjo&#xA;+DlJWWl5iZmpucnZ6fkqOkpaanqKmqq6ytrq+v/aAAwDAQACEQMRAD8AM/8AFvmr/q833/STN/zV&#xA;nGfmsv8AOl8y+ufybpv9Sx/6WP6nf4t81f8AV5vv+kmb/mrH81l/nS+ZX+TdN/qWP/Sx/U7/ABb5&#xA;q/6vN9/0kzf81Y/msv8AOl8yv8m6b/Usf+lj+p3+LfNX/V5vv+kmb/mrH81l/nS+ZX+TdN/qWP8A&#xA;0sf1O/xb5q/6vN9/0kzf81Y/msv86XzK/wAm6b/Usf8ApY/qRFlrvni/uFt7LUtSuZ26RxTzs3zo&#xA;G6ZOGfPI1GUifeWrLo9HjjxThjiPOMf1M/0DyL+YFzxl1nzDe2MR3MEdzLJMfmQ/Bfxza4NFqJbz&#xA;nKPxNvM63tjQw2xYYTPeYgD7rP2PQdK0iLTYfTS4ubljTlLdzyTsad/jJVf9iBm2xYhAcyfeSXl9&#xA;TqTlNkRj5RiI/d+lj3mrzb9V8x6LoFo9Li6uYXvGH7MPPZPm56+3zzE1Oq4ckMY5ki/c7Ts7s3j0&#xA;+XPIemMZcPvrn8Pv9zL82DonYq7FXYq7FXYq7FXYq7FXYq7FXYq7FXYq7FXYq7FXYq7FXYq7FXYq&#xA;7FXypnCvtLsVdiqvY2F7f3KWtlA9xcP9mKNSx/Dt75KEJSNRFlrzZoY48UyIxHe9L8s/kxI4S48w&#xA;TemOv1GAgt8nk3A+S/fm603ZHXIfgHkdf7VAXHAL/pH9A/X8npul6NpWlW4t9OtY7aLuEFC1O7N9&#xA;pj7k5usWGGMVEU8hqNVlzS4skjI/j5JfqnnfyppZK3epQiQdYoyZXr4FYwxH05Tl1mKHOQ+9ydP2&#xA;Tqc30QNd52H2sWvvzs0CKos7O5uSOjPwiU/i7fhmFPtjGOQJdzh9k85+uUY/M/qee+XdSu9T8/6f&#xA;f3bc7i5vo3kPbdhQD2A2GajT5DPURkeZk9TrsEcOhnCP0xgfufQ+dc+WOxV2KuxV2KuxV2KuxV2K&#xA;uxV2KuxV2KuxV2KuxV2KuxV2KuxV2KuxV2KvlTOFfaXYqzDyZ+W2qeYCl1OTZ6VX+/YfHIB2iU/8&#xA;SO3zzYaPs+WXc7R/HJ0Pavb2PS+mPqyd3d7/ANX3PZNI0HQPLVgy2kcdrCgrPcyEBmp+1JI3+1nR&#xA;YsGPDHbYd7wWq1mfVz9RMj0A/QGI+Y/zk0mzLwaNF9fnG3rvVIAfb9p/w+eYGo7XhHaA4j9jvND7&#xA;LZZ+rMeAd38X6h9vueba5548z60WW8vXEDbfVof3cVPAqv2v9lXNNm1uXJ9R27nrdH2Rp9P9ERxd&#xA;53P7PgkWYrsnYqnXkn/lLtH/AOYuL/iQzJ0f99H3h1/a3+K5P6h+59I52L5M7FXYq7FXYq7FXYq7&#xA;FXYq7FXYq7FXYq7FXYq7FXYq7FXYq7FXYq7FXYq+VM4V9peh/ll+XserEaxqsfLTkYi2tzsJmXYs&#xA;3+Qp+8/jt+ztB4nrn9PTzeW7f7bOD91iP7zqf5v7fuekea/OOkeV7JTP8dwy0tbKOgZgNh/qoPH7&#xA;s3Gq1cMEd+fQPJ9m9l5dZPb6esj+Ny8Z1XzTqPmrUQusaithYCrJGFkaGOnQBIwzMx8W/DOcy6mW&#xA;eXrlwx+x77TdnY9Hj/dQ45/Cz8TyHuRtjY/ldAR9d1O+vWHeKH0Yz9BDN+OWwhpR9UpH4U4+bN2l&#xA;L6IQh75Wf1J9aal+SkRAFlIfF5Vnk7dwWb9WZUcmiHT73W5MHa8v4h8OEfoZHp2gflV5gjZNOgt5&#xA;mAqUjaSKUDx41R/wzMx4NLl+kA/MOqz63tPTG8hkPfRHz3DDfzA/LJNEtG1XSpHksFYC4gk3eLka&#xA;BgwpyWpp4j3zXa7s7wxxw+l33Yvb51EvCyip9COv7WMeSf8AlLtH/wCYuL/iQzC0f99H3h3Ha3+K&#xA;5P6h+59I52L5M7FXYq7FXYq7FXYq7FXYq7FXYq7FXYq7FXYq7FXYq7FXYq7FXYq7FXYq+VY15yKl&#xA;QvIgcj0Fe+cKA+0SNC31BBbwaZpiQW0Z9GzhCxRL1KxrsB7mmdvGIhGhyAfHZzlmyGUjvI/e+atY&#xA;1e91fUp9QvX5zztU+Cjsq+CqNhnGZcsskjKXMvrel00MGMY4CohB5W5DsVdirJvy407ULzzfYNZ8&#xA;lFtIJ7iUdFiX7QJ/yx8P05m9n45SzRrpu6ft3Pjx6WfH/EKHv/ZzeyfmDc29v5N1VpyArwmNAe7y&#xA;EKtPpOdFr5AYZX3PBdi45S1eOv51/Ac3h/kn/lLtH/5i4v8AiQzmdH/fR94fRe1v8Vyf1D9z6Rzs&#xA;XyZ2KuxV2KuxV2KuxV2KuxV2KuxV2KuxV2KuxV2KuxV2KuxV2KuxV2KuxV8qZwr7S9m8m/mxpE9h&#xA;DZ65KbW+iUIblgTFKFFAxIrxY967fqzotJ2pAxAntL73ge1PZvLGZnhHFA9Oo/WFfVfLX5Waw73f&#xA;121t5ZKtJNbXUcdSdySpLID4/Dk8un0uTewPcQ1abX9pYAI8MpAdJQJ+3n9rG73yb+VltVm8yuVG&#xA;9I5Ipz/ySjav3Zhz0mlj/lPuP3B22LtTtKf+QHxBj95SK9T8sbUUtW1PUpB/lRQRH6THzH3ZizGm&#xA;jy45fIfodliPaM/q8LGPjI/fSH8ueStW8y3rtYQG103ma3MpLIi1+yGovqMB4fTTIafRzzS9IqPf&#xA;+Obbru1sWkhUzxZK5Dmf1D8bvbfL3lzRfK+ltFbUjQDnd3cpAZyo3Z2OwA7DoM6XBp4YI0PiXzzW&#xA;67NrMly37ojp7nkf5k+ex5hu1srEkaTasShOxmk6eoR2AGyj/MaDtDW+KeGP0D7XuOwex/yseOf9&#xA;7L7B3frSTyT/AMpdo/8AzFxf8SGY2j/vo+8Ox7W/xXJ/UP3PpHOxfJnYq7FXYq7FXYq7FXYq7FXY&#xA;q7FXYq7FXYq7FXYq7FXYq7FXYq7FXYq7FXypnCvtLsVdiqd6F5M8ya2VNjZOYD/x8yfu4h/s26/J&#xA;anMnDo8mT6Rt39HXaztXT6f65C+4bn5frem+Wvyd0iy4T6zJ+kLkb+gtVgU/8Sf6aD2zdafsmEd5&#xA;+o/Y8hr/AGoy5PThHBHv/i/UPxuyzWvMOg+W7FXvJUt41WkFrGBzYDbjHGKf0GZ+bUY8MfVt5Ok0&#xA;mhz6udQBkepPL4n8F4t5z/MPVfMbm3WtppYNUtVO706GVv2vl0H45zmr18823KPd+t9A7K7ExaUc&#xA;X1ZO/u9zFMwHdp15J/5S7R/+YuL/AIkMydH/AH0feHX9rf4rk/qH7n0jnYvkzsVdirsVdirsVdir&#xA;sVdirsVdirsVdirsVdirsVdirsVdirsVdirsVdir5o8teXb3zBq0enWlFZwWklavFEXqzU+755xm&#xA;n08ss+EPruv10NNiOSXy7y9JsPyPsEIN/qcsw7pBGsX/AAzGT9WbmHY0f4pfJ5LN7XTP0QA95v8A&#xA;UyzSPy+8paUQ9vp6STD/AHdPWZqjuOdVU/6oGZ2LQYYco7+e7pNT21qs20pkDuG33fpTbU9X0rSb&#xA;X6xqFzHawDYFzStOyqN2PsBmRkyxxi5Gg4Wn0uTPLhxxMi8y8zfnPI4e38vw+mOn16cAt80j3A+b&#xA;fdml1Pa/TGPiXr9B7KgVLOb/AKI/Sf1fN5ne315fXL3V5M9xcSGryyMWY/Sc0s5mRsmy9diwwxxE&#xA;YARiO5RyLY7FU68k/wDKXaP/AMxcX/EhmTo/76PvDr+1v8Vyf1D9z6RzsXyZ2KuxV2KuxV2KuxV2&#xA;KuxV2KuxV2KuxV2KuxV2KuxV2KuxV2KuxV2KuxVhf5XeU/0Logu7lKajqAEkoI3SPqkf41b3+Wa3&#xA;s3S+HCz9UnoPaHtL8xm4Yn0Q2956n9X7U+1vzVomiqfrs/76lRbxKZJDXp8Kg0+mmZWbVQx/UXW6&#xA;Ts7NqPoG3edg858wfm7rlxyh0SwazjOwuZk5y/ML9hf+GzUZ+1ZnaAr73q9F7M4Y75p8R7hsP1n7&#xA;Hn1/PrWoXBuL5p7mduskvJjTwFeg9s1M5TmblZL0+GGHFHhhwxHlSG+qXX++ZP8AgT/TIcJ7m7xY&#xA;94d9Uuv98yf8Cf6Y8J7l8WPeHfVLr/fMn/An+mPCe5fFj3h31S6/3zJ/wJ/pjwnuXxY94TryXbXK&#xA;+bdIZonAF1ESSpA+0MyNHE+LHbqHX9q5InS5Nx9BfRmdg+UuxV2KuxV2KuxV2KuxV2KuxV2KuxV2&#xA;KuxV2KuxV2KuxV2KuxV2KuxV2KuxV2KuxV2KuxV2KuxV2KuxV2KuxV2KuxV2KuxV2KuxV2KuxV2K&#xA;uxV2KuxV2KuxV2KuxV2KuxV2KuxV2KuxV2KuxV2KuxV2KuxV2KuxV2KuxV2KuxV2KuxV2KuxV2Ku&#xA;xV2KuxV2KuxV2KuxV2KuxV2KuxV2KuxV2KuxV2KuxV2KuxV2KuxV2KuxV2KuxV2KuxV2KuxV2Kux&#xA;V2KuxV2KuxV2KuxV2KuxV2KuxV2KuxV2KuxV2KuxV2KuxV2KuxV2KuxV2KuxV2KuxV2KuxV2KuxV&#xA;2KuxV2KuxV2KuxV2KuxV2KuxV2KuxV2KuxV2KuxV2Kv/2Q==</xmpGImg:image>
               </rdf:li>
            </rdf:Alt>
         </xmp:Thumbnails>
         <xmpTPg:NPages>1</xmpTPg:NPages>
         <xmpTPg:HasVisibleTransparency>False</xmpTPg:HasVisibleTransparency>
         <xmpTPg:HasVisibleOverprint>False</xmpTPg:HasVisibleOverprint>
         <xmpTPg:MaxPageSize rdf:parseType="Resource">
            <stDim:w>300.002231</stDim:w>
            <stDim:h>120.473611</stDim:h>
            <stDim:unit>Millimeters</stDim:unit>
         </xmpTPg:MaxPageSize>
         <xmpTPg:PlateNames>
            <rdf:Seq>
               <rdf:li>Magenta</rdf:li>
               <rdf:li>Yellow</rdf:li>
            </rdf:Seq>
         </xmpTPg:PlateNames>
         <xmpTPg:SwatchGroups>
            <rdf:Seq>
               <rdf:li rdf:parseType="Resource">
                  <xmpG:groupName>Default Swatch Group</xmpG:groupName>
                  <xmpG:groupType>0</xmpG:groupType>
               </rdf:li>
            </rdf:Seq>
         </xmpTPg:SwatchGroups>
         <dc:format>image/svg+xml</dc:format>
         <dc:title>
            <rdf:Alt>
               <rdf:li xml:lang="x-default">sse-logo-01</rdf:li>
            </rdf:Alt>
         </dc:title>
         <illustrator:CreatorSubTool>Adobe Illustrator</illustrator:CreatorSubTool>
         <xmpMM:DocumentID>xmp.did:cae90122-f2a8-4b42-9972-6562f650367f</xmpMM:DocumentID>
         <xmpMM:InstanceID>xmp.iid:cae90122-f2a8-4b42-9972-6562f650367f</xmpMM:InstanceID>
         <xmpMM:OriginalDocumentID>xmp.did:e4916fdd-18b0-48ff-a1b5-e15e6684bb97</xmpMM:OriginalDocumentID>
         <xmpMM:RenditionClass>default</xmpMM:RenditionClass>
         <xmpMM:DerivedFrom rdf:parseType="Resource">
            <stRef:instanceID>xmp.iid:4c986305-b962-1d42-98d7-b594c4cd0273</stRef:instanceID>
            <stRef:documentID>xmp.did:e4916fdd-18b0-48ff-a1b5-e15e6684bb97</stRef:documentID>
            <stRef:originalDocumentID>xmp.did:e4916fdd-18b0-48ff-a1b5-e15e6684bb97</stRef:originalDocumentID>
            <stRef:renditionClass>default</stRef:renditionClass>
         </xmpMM:DerivedFrom>
         <xmpMM:History>
            <rdf:Seq>
               <rdf:li rdf:parseType="Resource">
                  <stEvt:action>saved</stEvt:action>
                  <stEvt:instanceID>xmp.iid:e4916fdd-18b0-48ff-a1b5-e15e6684bb97</stEvt:instanceID>
                  <stEvt:when>2022-07-01T11:54:46+05:30</stEvt:when>
                  <stEvt:softwareAgent>Adobe Illustrator 25.4 (Macintosh)</stEvt:softwareAgent>
                  <stEvt:changed>/</stEvt:changed>
               </rdf:li>
               <rdf:li rdf:parseType="Resource">
                  <stEvt:action>saved</stEvt:action>
                  <stEvt:instanceID>xmp.iid:cae90122-f2a8-4b42-9972-6562f650367f</stEvt:instanceID>
                  <stEvt:when>2022-07-02T06:28:27+05:30</stEvt:when>
                  <stEvt:softwareAgent>Adobe Illustrator 26.0 (Windows)</stEvt:softwareAgent>
                  <stEvt:changed>/</stEvt:changed>
               </rdf:li>
            </rdf:Seq>
         </xmpMM:History>
         <pdf:Producer>Adobe PDF library 16.00</pdf:Producer>
      </rdf:Description>
   </rdf:RDF>
</x:xmpmeta>
                                                                                                    
                                                                                                    
                                                                                                    
                                                                                                    
                                                                                                    
                                                                                                    
                                                                                                    
                                                                                                    
                                                                                                    
                                                                                                    
                                                                                                    
                                                                                                    
                                                                                                    
                                                                                                    
                                                                                                    
                                                                                                    
                                                                                                    
                                                                                                    
                                                                                                    
                                                                                                    
                           
<?xpacket end="w"?>
	</metadata>
<path class="st0" d="M360,248.8c-14.6,0-28.6-2.3-42-6.5c-13.3-4.2-26.3-10.7-38.4-19.5v-51.1h25l5.5,37.4
	c7.2,4.2,14.6,7.8,23.1,10.1s17.2,3.6,27,3.6c11.1,0,20.2-1.6,27.6-4.9c7.5-3.3,13.3-7.8,17.6-14c4.2-6.2,6.2-12.7,6.2-20.5
	c0-7.2-1.6-13.7-5.2-19.2s-9.1-10.4-17.2-14.6c-8.1-4.2-18.9-7.8-32.8-11.1c-16.3-3.9-30.2-8.8-41.6-15.3s-19.8-14-25.7-23.4
	s-8.8-19.5-8.8-31.2c0-12.4,3.3-23.7,9.8-33.5s15.9-17.6,27.6-23.4c11.7-5.9,25.7-8.5,41.3-8.5c16.6,0,31.5,2.6,44.2,7.5
	s23.4,11.1,31.5,18.5V77h-25l-5.5-34.1c-4.9-3.9-11.1-7.2-18.2-9.8s-16.3-3.9-27.3-3.9c-9.1,0-17.2,1.6-24.4,4.9
	c-6.8,3.3-12.4,7.8-16.3,13.7s-5.9,12.7-5.9,20.5c0,6.8,1.6,13,5.2,17.9s9.4,9.8,17.2,13.7c8.1,3.9,18.9,7.5,32.2,10.7
	c25,6.2,44.2,15.3,56.9,27.6s19.5,27.3,19.5,45.2c0,12.7-3.6,24.1-10.4,33.8s-16.6,17.6-28.9,23.1
	C391.5,245.8,376.9,248.8,360,248.8z"/>
<path class="st0" d="M557.4,248.8c-14.6,0-28.6-2.3-42-6.5c-13.3-4.2-26.3-10.7-38.4-19.5v-51.1h25l5.5,37.4
	c7.2,4.2,14.6,7.8,23.1,10.1s17.2,3.6,27,3.6c11.1,0,20.2-1.6,27.6-4.9c7.5-3.3,13.3-7.8,17.6-14c4.2-6.2,6.2-12.7,6.2-20.5
	c0-7.2-1.6-13.7-5.2-19.2c-3.6-5.5-9.1-10.4-17.2-14.6c-8.1-4.2-18.9-7.8-32.8-11.1c-16.3-3.9-30.2-8.8-41.6-15.3
	s-19.8-14-25.7-23.4c-5.9-9.1-8.8-19.5-8.8-31.2c0-12.4,3.3-23.7,9.8-33.5s15.9-17.6,27.6-23.4c11.7-5.9,25.7-8.5,41.3-8.5
	c16.6,0,31.5,2.6,44.2,7.5s23.4,11.1,31.5,18.5V77h-25l-5.5-34.1c-4.9-3.9-11.1-7.2-18.2-9.8c-7.2-2.6-16.3-3.9-27.3-3.9
	c-9.1,0-17.2,1.6-24.4,4.9c-6.8,3.3-12.4,7.8-16.3,13.7c-3.9,5.9-5.9,12.7-5.9,20.5c0,6.8,1.6,13,5.2,17.9
	c3.6,5.2,9.4,9.8,17.2,13.7c8.1,3.9,18.9,7.5,32.2,10.7c25,6.2,44.2,15.3,56.9,27.6c12.7,12.4,19.5,27.3,19.5,45.2
	c0,12.7-3.6,24.1-10.4,33.8c-6.8,9.8-16.6,17.6-28.9,23.1C588.9,245.8,574.3,248.8,557.4,248.8z"/>
<path class="st0" d="M668.9,245.2v-20.5l26.7-4.6v-188l-26.7-4.6V6.8h176.6V64h-26l-3.6-32.5h-88.1v77.7h87.8v25.4h-87.8v86.5h93.3
	l3.6-32.8h25.7v57.2L668.9,245.2L668.9,245.2z"/>
<rect y="7.2" class="st0" width="234.1" height="234.1"/>
<path class="st1" d="M211.7,44.2C140.2,53,52,103.4,52,129.1c0,26,82.3,15,82.3,15s2.9-0.3,3.3,1.3c0.7,2.6-1.3,3.3-1.3,3.3
	S25.4,185.4,25.4,128.5c0-56.3,169.4-119.3,175-121.3H0v234.1l22.4-37.4c71.5-9.1,159.7-59.2,159.7-85.2s-81.9-15.3-81.9-15.3
	s-2.9,0.3-3.3-1.3c-0.7-2.6,1.3-3.3,1.3-3.3s110.9-36.4,110.9,20.8c0,56.3-169.4,119.3-175,121.3h200.3V6.5L211.7,44.2z"/>
<path class="st0" d="M2.3,326.5v-3.3l4.2-0.7v-30.2l-4.2-0.7v-3.3h4.2h10.7c3.3,0,6.5,0.7,8.8,2.3c2.3,1.6,4.6,3.9,5.9,6.8
	c1.3,2.9,2,6.2,2,9.8v1c0,3.6-0.7,6.8-2,9.8c-1.3,2.9-3.3,5.2-5.9,6.8c-2.6,1.6-5.5,2.6-8.8,2.6h-15L2.3,326.5L2.3,326.5z M12,322.6
	h5.5c2.3,0,4.6-0.7,6.2-2s2.9-3.3,3.9-5.2c1-2.3,1.3-4.6,1.3-7.5v-1c0-2.9-0.3-5.2-1.3-7.5s-2.3-3.9-3.9-5.2c-1.6-1.3-3.9-2-6.2-2
	H12V322.6z"/>
<path class="st0" d="M38,326.5v-3.3l4.2-0.7V302l-4.2-0.7V298h9.1l0.3,3.6v0.7c0.7-1.6,2-2.6,2.9-3.6c1.3-1,2.6-1.3,4.2-1.3
	c0.7,0,1,0,1.6,0c0.7,0,1,0.3,1.3,0.3l-0.7,4.9l-3.6-0.3c-1.3,0-2.6,0.3-3.6,1s-1.6,1.6-2.3,2.9v16.3l4.2,0.7v3.3H38z"/>
<path class="st0" d="M60.5,326.5v-3.3l4.2-0.7V302l-4.2-0.7V298h9.4v24.4l4.2,0.7v3.3H60.5V326.5z M64.4,291.4v-5.5h5.5v5.5H64.4z"
	/>
<path class="st0" d="M89.8,326.5l-10.1-24.7l-2.9-0.3v-3.3h12v3.3l-3.9,0.3l6.2,16.3l0.7,2.3l0,0l1-2.3l5.9-16.3l-3.9-0.7v-3.3h12
	v3.3l-2.9,0.3L94,326.2L89.8,326.5L89.8,326.5z"/>
<path class="st0" d="M121.9,327.1c-2.6,0-4.9-0.7-6.8-2c-2-1.3-3.6-2.9-4.6-4.9c-1-2.3-1.6-4.6-1.6-7.5v-1.3c0-2.6,0.7-5.2,1.6-7.2
	c1-2.3,2.6-3.9,4.6-5.2c2-1.3,3.9-2,6.2-2c2.6,0,4.9,0.7,6.5,1.6c1.6,1,2.9,2.6,3.9,4.6s1.3,4.2,1.3,6.8v3.3h-18.5l0,0
	c0,2,0.3,3.6,1,4.9s1.6,2.6,2.6,3.3s2.6,1.3,4.2,1.3s3.3-0.3,4.6-0.7c1.3-0.7,2.6-1.3,3.6-2l2,3.3c-1,1-2.3,2-3.9,2.6
	C126.2,327.1,124.6,327.1,121.9,327.1z M114.1,309.6h13.3v-0.7c0-1.3-0.3-2.6-0.7-3.6c-0.3-1-1.3-2-2.3-2.6s-2.3-1-3.6-1
	c-1.3,0-2.3,0.3-3.3,1s-1.6,1.6-2.3,2.6C114.8,306.3,114.8,308.3,114.1,309.6L114.1,309.6z"/>
<path class="st0" d="M136.6,326.5v-3.3l4.2-0.7V302l-4.2-0.7V298h9.1l0.3,4.2c1-1.6,2.3-2.6,3.6-3.6s2.9-1.3,4.9-1.3
	c2.9,0,5.5,1,7.2,2.6c1.6,2,2.6,4.6,2.6,8.5v14l4.2,0.7v3.3h-13.7v-3.3l4.2-0.7v-14c0-2.6-0.7-4.2-1.6-5.2c-1-1-2.6-1.6-4.6-1.6
	c-1.6,0-2.9,0.3-3.9,1c-1.3,0.7-2,1.6-2.6,2.9v16.9l4.2,0.7v3.3C150.6,326.5,136.6,326.5,136.6,326.5z"/>
<path class="st0" d="M200.6,327.1c-2,0-3.6-0.3-4.9-1s-2.6-1.6-3.6-3.3l-0.3,3.6h-4.6v-37.1l-4.2-0.7v-3.3h9.4v15.9
	c1-1.3,2-2.3,3.3-2.9c1.3-0.7,2.9-1,4.6-1c2.3,0,4.2,0.7,6.2,2c1.6,1.3,2.9,2.9,3.9,5.5s1.3,4.9,1.3,8.1v0.7c0,2.6-0.3,5.2-1.3,7.2
	s-2.3,3.6-3.9,4.9C205.2,326.5,203.6,327.1,200.6,327.1z M199.7,323.2c2.6,0,4.2-1,5.5-2.6s1.6-3.9,1.6-6.8v-0.7
	c0-2.3-0.3-4.2-0.7-5.9c-0.3-1.6-1.3-2.9-2.3-3.9s-2.3-1.3-4.2-1.3c-1.6,0-2.9,0.3-3.9,1.3s-2,2-2.6,3.3V319
	c0.7,1.3,1.6,2.3,2.6,3.3C196.7,323.2,198,323.2,199.7,323.2z"/>
<path class="st0" d="M221.5,338.5c-0.3,0-1,0-1.6,0c-0.7,0-1.3-0.3-1.6-0.3l0.7-4.2c0.3,0,0.7,0,1.3,0c0.7,0,1,0,1,0
	c1,0,2-0.3,2.6-1.3c0.7-1,1.3-2,2-3.6l1.3-2.9l-10.1-24.1l-2.9-0.3v-3.3h12v3.3l-3.6,0.7l5.5,14.3l1.3,3.6l0,0l6.5-17.9l-3.6-0.7
	v-3.3H244v3.3l-2.9,0.3l-11.4,29.3c-0.7,1.3-1.3,2.6-2,3.6s-1.6,2-2.6,2.6C224.1,337.9,223.1,338.5,221.5,338.5z"/>
<path class="st0" d="M278,327.1c-3.9,0-7.2-1-9.8-2.6c-2.6-1.6-4.6-3.9-5.9-6.8s-2-6.2-2-10.1V307c0-3.9,0.7-7.2,2-10.1
	s3.3-5.2,5.9-6.8c2.6-1.6,5.5-2.6,9.1-2.6c2.6,0,4.9,0.3,6.8,1.3c2,0.7,3.9,1.6,5.2,2.9v8.5h-4.2l-0.7-6.2c-0.7-0.3-1.3-0.7-2-1
	s-1.6-0.7-2.3-0.7c-1,0-2-0.3-2.9-0.3c-2.6,0-4.6,0.7-6.5,2c-1.6,1.3-2.9,2.9-3.9,5.2c-1,2.3-1.3,4.9-1.3,7.8v0.7
	c0,3.3,0.3,5.9,1.3,8.1c1,2.3,2.3,3.9,4.2,5.2c2,1.3,4.2,2,6.8,2c1.3,0,2.3,0,3.6-0.3s2.3-0.7,2.9-1.3l0.7-5.2h4.2v8.5
	c-1.3,1-3.3,1.6-5.2,2C282.3,326.8,280,327.1,278,327.1z"/>
<path class="st0" d="M294.6,326.5v-3.3l4.2-0.7V302l-4.2-0.7V298h9.1l0.3,3.6v0.7c0.7-1.6,2-2.6,2.9-3.6c1.3-1,2.6-1.3,4.2-1.3
	c0.7,0,1,0,1.6,0c0.7,0,1,0.3,1.3,0.3l-0.7,4.9l-3.9-0.3c-1.3,0-2.6,0.3-3.6,1s-1.6,1.6-2.3,2.9v16.3l4.2,0.7v3.3H294.6z"/>
<path class="st0" d="M329.8,327.1c-2.6,0-4.9-0.7-6.8-2c-2-1.3-3.6-2.9-4.6-4.9c-1-2.3-1.6-4.6-1.6-7.5v-1.3c0-2.6,0.7-5.2,1.6-7.2
	c1-2.3,2.6-3.9,4.6-5.2c2-1.3,3.9-2,6.2-2c2.6,0,4.9,0.7,6.5,1.6c1.6,1,2.9,2.6,3.9,4.6s1.3,4.2,1.3,6.8v3.3h-18.5l0,0
	c0,2,0.3,3.6,1,4.9s1.6,2.6,2.6,3.3c1,0.7,2.6,1.3,4.2,1.3s3.3-0.3,4.6-0.7c1.3-0.7,2.6-1.3,3.6-2l2,3.3c-1,1-2.3,2-3.9,2.6
	C333.7,327.1,331.7,327.1,329.8,327.1z M321.9,309.6h13.3v-0.7c0-1.3-0.3-2.6-0.7-3.6s-1.3-2-2.3-2.6s-2.3-1-3.6-1
	c-1.3,0-2.3,0.3-3.3,1s-1.6,1.6-2.3,2.6C322.6,306.3,321.9,308.3,321.9,309.6L321.9,309.6z"/>
<path class="st0" d="M354.1,327.1c-2.9,0-5.2-0.7-6.8-2.3c-1.6-1.3-2.3-3.6-2.3-6.2c0-2,0.7-3.3,1.6-4.9c1-1.3,2.3-2.3,4.2-3.3
	c2-0.7,4.2-1,6.8-1h5.2v-2.9c0-1.6-0.7-2.9-1.6-3.9c-1-1-2.6-1.3-4.6-1.3c-1.3,0-2.3,0-3.3,0.3s-1.6,0.7-2.3,1.3l-0.7,3.9h-3.9v-6.5
	c1.3-1,2.9-2,4.6-2.3c1.6-0.7,3.6-0.7,5.5-0.7c3.6,0,6.2,1,8.1,2.6c2,1.6,2.9,3.9,2.9,7.2V321c0,0.3,0,0.7,0,1s0,0.7,0,1l2.9,0.3
	v3.3h-7.5c0-0.7-0.3-1.6-0.3-2c0-0.7,0-1.3-0.3-2c-1,1.3-2.3,2.3-3.9,3.3C357.7,327.1,356.1,327.1,354.1,327.1z M354.8,323.2
	c1.6,0,3.3-0.3,4.9-1.3c1.3-1,2.6-2,2.9-2.9v-5.2h-5.2c-2.3,0-4.2,0.7-5.5,1.6c-1.3,1.3-2,2.3-2,3.9c0,1.3,0.3,2.3,1.3,2.9
	C352.5,322.6,353.2,323.2,354.8,323.2z"/>
<path class="st0" d="M385,327.1c-2,0-3.9-0.7-4.9-2s-2-3.3-2-5.9V302h-4.6v-3.9h4.6v-6.8h5.2v6.8h6.2v3.9h-6.2v17.2
	c0,1.3,0.3,2.3,1,2.9c0.7,0.7,1.3,1,2.3,1c0.7,0,1.3,0,2-0.3s1.3-0.3,1.6-0.3l0.7,3.3c-0.7,0.3-1.6,0.3-2.9,0.7
	C386.7,327.1,386,327.1,385,327.1z"/>
<path class="st0" d="M394.1,326.5v-3.3l4.2-0.7V302l-4.2-0.7V298h9.4v24.4l4.2,0.7v3.3h-13.6V326.5z M398,291.4v-5.5h5.5v5.5H398z"
	/>
<path class="st0" d="M423.4,326.5l-10.1-24.7l-2.9-0.3v-3.3h12v3.3l-3.6,0.7l6.2,16.3l0.7,2.3l0,0l1-2.3l5.9-16.3l-3.9-0.7v-3.3h12
	v3.3l-2.9,0.3l-9.8,24.7H423.4z"/>
<path class="st0" d="M442.9,326.5v-3.3l4.2-0.7V302l-4.2-0.7V298h9.4v24.4l4.2,0.7v3.3h-13.6V326.5z M446.8,291.4v-5.5h5.5v5.5
	H446.8z"/>
<path class="st0" d="M470.6,327.1c-2.3,0-3.9-0.7-4.9-2c-1.3-1.3-2-3.3-2-5.9V302h-4.6v-3.9h4.6v-6.8h5.2v6.8h6.2v3.9h-6.2v17.2
	c0,1.3,0.3,2.3,1,2.9c0.7,0.7,1.3,1,2.3,1c0.7,0,1.3,0,2-0.3s1.3-0.3,1.6-0.3l0.7,3.3c-0.7,0.3-1.6,0.3-2.9,0.7
	C472.2,327.1,471.2,327.1,470.6,327.1z"/>
<path class="st0" d="M485.8,338.5c-0.3,0-1,0-1.6,0s-1.3-0.3-1.6-0.3l0.7-4.2c0.3,0,0.7,0,1.3,0s1,0,1,0c1,0,2-0.3,2.6-1.3
	c0.7-1,1.3-2,2-3.6l1.3-2.9l-10.1-24.1l-2.9-0.3v-3.3h12v3.3l-3.6,0.7l5.5,14.3l1.3,3.6l0,0l6.5-17.9l-3.6-0.7v-3.3h11.7v3.3
	l-2.9,0.3L494,331.4c-0.7,1.3-1.3,2.6-2,3.6s-1.6,2-2.6,2.6C488.1,337.9,487.5,338.5,485.8,338.5z"/>
<path class="st0" d="M537.2,327.1c-2.6,0-4.9-0.3-6.5-1.3s-3.3-2.3-4.2-3.9c-1-1.6-1.6-3.6-1.6-5.5c0-2,0.7-3.9,2-5.5
	s2.9-3.3,5.2-4.9l0,0l0,0c-1.3-1.6-2.3-3.3-2.9-4.6c-0.7-1.3-1-2.9-1-4.2c0-2,0.3-3.6,1.3-5.2s2-2.3,3.3-3.3c1.3-0.7,3.3-1,5.2-1
	s3.6,0.3,4.9,1c1.3,0.7,2.6,1.6,3.3,2.9s1.3,2.6,1.3,4.2s-0.3,3.3-1.3,4.6c-1,1.3-2.3,2.6-4.2,3.9l-2.9,2l9.1,10.7
	c0.7-1.3,1.3-2.3,1.6-3.9c0.3-1.3,0.7-2.9,0.7-4.6h4.6c0,2.3-0.3,4.6-1,6.5c-0.7,2-1.6,3.9-2.9,5.2l4.9,5.9l0,0h-6.2l-2.3-2.6
	c-1.3,1-2.9,2-4.6,2.3C540.5,327.1,538.9,327.1,537.2,327.1z M537.2,323.2c1.3,0,2.6-0.3,3.9-0.7s2.3-1,3.6-2l-9.4-11.4l-1,0.7
	c-1.6,1.3-2.6,2.3-3.3,3.6c-0.7,1-0.7,2-0.7,2.9c0,2,0.7,3.6,2,4.9C533.7,322.6,534.6,323.2,537.2,323.2z M536.3,303.1l3.6-2.6
	c1-0.7,1.6-1.3,2-2.3c0.3-0.7,0.7-1.6,0.7-2.6s-0.3-2-1.3-2.9c-1-1-2-1.3-3.3-1.3s-2.6,0.7-3.3,1.6c-0.7,1-1.3,2.3-1.3,3.6
	c0,1,0.3,2,0.7,2.9C534.3,300.5,535.3,302.1,536.3,303.1z"/>
<path class="st0" d="M572,326.5v-3.3l4.2-0.7v-30.2l-4.2-0.7v-3.3h13.7v3.3l-4.2,0.7v30.2l4.2,0.7v3.3H572z"/>
<path class="st0" d="M589.9,326.5v-3.3l4.2-0.7V302l-4.2-0.7V298h9.1l0.3,4.2c1-1.6,2.3-2.6,3.6-3.6s2.9-1.3,4.9-1.3
	c2.9,0,5.5,1,7.2,2.6c1.6,2,2.6,4.6,2.6,8.5v14l4.2,0.7v3.3h-13.7v-3.3l4.2-0.7v-13.7c0-2.6-0.7-4.2-1.6-5.2c-1-1-2.6-1.6-4.6-1.6
	c-1.6,0-2.9,0.3-3.9,1c-1.3,0.7-2,1.6-2.6,2.9v16.9l4.2,0.7v3.3C604.2,326.8,589.9,326.8,589.9,326.5z"/>
<path class="st0" d="M625.7,326.5v-3.3l4.2-0.7V302l-4.2-0.7V298h9.1l0.3,4.2c1-1.6,2.3-2.6,3.6-3.6s2.9-1.3,4.9-1.3
	c2.9,0,5.5,1,7.2,2.6c1.6,1.6,2.6,4.6,2.6,8.5v14l4.2,0.7v3.3h-13.7v-3.3l4.2-0.7v-13.7c0-2.6-0.7-4.2-1.6-5.2c-1-1-2.6-1.6-4.6-1.6
	c-1.6,0-2.9,0.3-3.9,1c-1.3,0.7-2,1.6-2.6,2.9v16.9l4.2,0.7v3.3C639.7,326.8,625.7,326.8,625.7,326.5z"/>
<path class="st0" d="M673.8,327.1c-2.6,0-4.9-0.7-6.8-2c-2-1.3-3.3-2.9-4.6-5.2c-1-2.3-1.6-4.6-1.6-7.5v-0.3c0-2.9,0.7-5.2,1.6-7.5
	c1-2.3,2.6-3.9,4.6-5.2c2-1.3,4.2-2,6.8-2s4.9,0.7,6.8,2c2,1.3,3.3,2.9,4.6,5.2c1,2.3,1.6,4.6,1.6,7.5v0.7c0,2.9-0.7,5.2-1.6,7.5
	s-2.6,3.9-4.6,5.2C678.7,326.5,676.1,327.1,673.8,327.1z M673.8,323.2c1.6,0,2.9-0.3,4.2-1.3c1-1,2-2.3,2.6-3.6c0.7-1.3,1-3.3,1-5.5
	v-0.3c0-2-0.3-3.9-1-5.5s-1.3-2.9-2.6-3.6c-1-1-2.6-1.3-4.2-1.3s-2.9,0.3-4.2,1.3c-1,1-2,2.3-2.6,3.6c-0.7,1.6-1,3.3-1,5.5v0.7
	c0,2,0.3,3.9,1,5.5s1.3,2.9,2.6,3.6C670.6,322.6,672.2,323.2,673.8,323.2z"/>
<path class="st0" d="M701.5,326.5l-10.1-24.7l-2.9-0.3v-3.3h12v3.3l-3.6,0.7l6.2,16.3l0.7,2.3l0,0l1-2.3l5.9-16.3l-3.9-0.7v-3.3h12
	v3.3l-2.9,0.3l-9.8,24.7H701.5z"/>
<path class="st0" d="M730.4,327.1c-2.9,0-5.2-0.7-6.8-2.3c-1.6-1.3-2.3-3.6-2.3-6.2c0-2,0.7-3.3,1.6-4.9c1-1.3,2.3-2.3,4.2-3.3
	c2-0.7,4.2-1,6.8-1h5.2v-2.9c0-1.6-0.7-2.9-1.6-3.9c-1-1-2.6-1.3-4.6-1.3c-1.3,0-2.3,0-3.3,0.3s-1.6,0.7-2.3,1.3l-0.7,3.9h-3.9v-6.5
	c1.3-1,2.9-2,4.6-2.3s3.6-0.7,5.5-0.7c3.6,0,6.2,1,8.1,2.6c2,1.6,2.9,3.9,2.9,7.2V321c0,0.3,0,0.7,0,1s0,0.7,0,1l2.9,0.3v3.3h-7.5
	c0-0.7-0.3-1.6-0.3-2c0-0.7,0-1.3-0.3-2c-1,1.3-2.3,2.3-3.9,3.3C733.3,326.8,731.7,327.1,730.4,327.1z M730.7,323.2
	c1.6,0,3.3-0.3,4.9-1.3c1.3-1,2.6-2,2.9-2.9v-5.2h-5.2c-2.3,0-4.2,0.7-5.5,1.6c-1.3,1.3-2,2.3-2,3.9c0,1.3,0.3,2.3,1.3,2.9
	C728.1,322.6,729.1,323.2,730.7,323.2z"/>
<path class="st0" d="M760.6,327.1c-2,0-3.9-0.7-4.9-2s-2-3.3-2-5.9V302h-4.6v-3.9h4.6v-6.8h5.2v6.8h6.2v3.9H759v17.2
	c0,1.3,0.3,2.3,1,2.9c0.7,0.7,1.3,1,2.3,1c0.7,0,1.3,0,2-0.3c0.7,0,1.3-0.3,1.6-0.3l0.7,3.3c-0.7,0.3-1.6,0.3-2.9,0.7
	C762.9,327.1,761.6,327.1,760.6,327.1z"/>
<path class="st0" d="M769.7,326.5v-3.3l4.2-0.7V302l-4.2-0.7V298h9.4v24.4l4.2,0.7v3.3h-13.6L769.7,326.5L769.7,326.5z M773.6,291.4
	v-5.5h5.5v5.5H773.6z"/>
<path class="st0" d="M800,327.1c-2.6,0-4.9-0.7-6.8-2c-2-1.3-3.3-2.9-4.6-5.2c-1-2.3-1.6-4.6-1.6-7.5v-0.3c0-2.9,0.7-5.2,1.6-7.5
	s2.6-3.9,4.6-5.2c2-1.3,4.2-2,6.8-2s4.9,0.7,6.8,2c2,1.3,3.3,2.9,4.6,5.2c1,2.3,1.6,4.6,1.6,7.5v0.7c0,2.9-0.7,5.2-1.6,7.5
	c-1,2.3-2.6,3.9-4.6,5.2C805.2,326.5,802.6,327.1,800,327.1z M800,323.2c1.6,0,2.9-0.3,4.2-1.3c1-1,2-2.3,2.6-3.6
	c0.7-1.3,1-3.3,1-5.5v-0.3c0-2-0.3-3.9-1-5.5s-1.3-2.9-2.6-3.6c-1-1-2.6-1.3-4.2-1.3c-1.6,0-2.9,0.3-4.2,1.3c-1,1-2,2.3-2.6,3.6
	c-0.7,1.6-1,3.3-1,5.5v0.7c0,2,0.3,3.9,1,5.5s1.3,2.9,2.6,3.6C797.4,322.6,798.7,323.2,800,323.2z"/>
<path class="st0" d="M817.2,326.5v-3.3l4.2-0.7V302l-4.2-0.7V298h9.1l0.3,4.2c1-1.6,2.3-2.6,3.6-3.6s2.9-1.3,4.9-1.3
	c2.9,0,5.5,1,7.2,2.6c1.6,2,2.6,4.6,2.6,8.5v14l4.2,0.7v3.3h-14v-3.3l4.2-0.7v-13.7c0-2.6-0.7-4.2-1.6-5.2c-1-1-2.6-1.6-4.6-1.6
	c-1.6,0-2.9,0.3-3.9,1c-1.3,0.7-2,1.6-2.6,2.9v16.9l4.2,0.7v3.3C831.2,326.8,817.2,326.8,817.2,326.5z"/>
</svg>
